<svg width="609" height="934" viewBox="0 0 609 934" fill="none" xmlns="http://www.w3.org/2000/svg">
<rect width="609" height="934" fill="#28313E"/>
<path d="M230 514C230 511.239 232.239 509 235 509H384C386.761 509 389 511.239 389 514V572C389 574.761 386.761 577 384 577H235C232.239 577 230 574.761 230 572V514Z" fill="#354150"/>
<path d="M264.25 539.03C264.757 539.03 265.173 539.137 265.5 539.35C265.827 539.563 266.07 539.9 266.23 540.36C266.39 540.813 266.47 541.407 266.47 542.14V550H263.76V542.5C263.76 542.127 263.723 541.863 263.65 541.71C263.583 541.557 263.443 541.48 263.23 541.48C263.063 541.48 262.89 541.53 262.71 541.63C262.537 541.723 262.343 541.903 262.13 542.17V550H259.91V542.5C259.91 542.127 259.873 541.863 259.8 541.71C259.733 541.557 259.593 541.48 259.38 541.48C259.213 541.48 259.04 541.53 258.86 541.63C258.687 541.723 258.493 541.903 258.28 542.17V550H255.53V539.38H257.85L258.06 540.41C258.393 539.957 258.73 539.613 259.07 539.38C259.41 539.147 259.813 539.03 260.28 539.03C260.68 539.03 261.02 539.133 261.3 539.34C261.587 539.54 261.79 539.857 261.91 540.29C262.23 539.917 262.583 539.613 262.97 539.38C263.357 539.147 263.783 539.03 264.25 539.03ZM272.082 539.03C272.609 539.03 273.096 539.133 273.542 539.34C273.989 539.54 274.372 539.837 274.692 540.23L274.832 539.38H277.592V554.43L274.432 554.1V549.11C274.126 549.477 273.752 549.773 273.312 550C272.872 550.227 272.339 550.34 271.712 550.34C270.806 550.34 270.066 550.107 269.492 549.64C268.919 549.167 268.499 548.507 268.232 547.66C267.966 546.807 267.832 545.807 267.832 544.66C267.832 543.567 267.996 542.597 268.322 541.75C268.656 540.903 269.139 540.24 269.772 539.76C270.406 539.273 271.176 539.03 272.082 539.03ZM272.912 541.34C272.332 541.34 271.882 541.6 271.562 542.12C271.249 542.633 271.092 543.487 271.092 544.68C271.092 545.553 271.159 546.23 271.292 546.71C271.426 547.19 271.612 547.527 271.852 547.72C272.099 547.907 272.386 548 272.712 548C273.079 548 273.402 547.893 273.682 547.68C273.962 547.467 274.212 547.17 274.432 546.79V542.21C274.226 541.937 274.002 541.723 273.762 541.57C273.522 541.417 273.239 541.34 272.912 541.34ZM289.944 549.38C289.531 549.647 289.031 549.873 288.444 550.06C287.858 550.247 287.198 550.34 286.464 550.34C285.078 550.34 284.048 549.987 283.374 549.28C282.701 548.567 282.364 547.6 282.364 546.38V541.56H280.134V539.38H282.364V537.08L285.524 536.7V539.38H288.944L288.634 541.56H285.524V546.38C285.524 546.907 285.644 547.283 285.884 547.51C286.124 547.737 286.508 547.85 287.034 547.85C287.408 547.85 287.748 547.807 288.054 547.72C288.368 547.627 288.648 547.51 288.894 547.37L289.944 549.38ZM301.937 549.38C301.523 549.647 301.023 549.873 300.437 550.06C299.85 550.247 299.19 550.34 298.457 550.34C297.07 550.34 296.04 549.987 295.367 549.28C294.693 548.567 294.357 547.6 294.357 546.38V541.56H292.127V539.38H294.357V537.08L297.517 536.7V539.38H300.937L300.627 541.56H297.517V546.38C297.517 546.907 297.637 547.283 297.877 547.51C298.117 547.737 298.5 547.85 299.027 547.85C299.4 547.85 299.74 547.807 300.047 547.72C300.36 547.627 300.64 547.51 300.887 547.37L301.937 549.38ZM316.851 548.23C316.851 547.663 317.054 547.177 317.461 546.77C317.874 546.363 318.374 546.16 318.961 546.16C319.548 546.16 320.041 546.363 320.441 546.77C320.848 547.177 321.051 547.663 321.051 548.23C321.051 548.803 320.848 549.3 320.441 549.72C320.041 550.133 319.548 550.34 318.961 550.34C318.374 550.34 317.874 550.133 317.461 549.72C317.054 549.3 316.851 548.803 316.851 548.23ZM316.851 541.32C316.851 540.94 316.944 540.593 317.131 540.28C317.324 539.96 317.581 539.703 317.901 539.51C318.221 539.317 318.574 539.22 318.961 539.22C319.548 539.22 320.041 539.43 320.441 539.85C320.848 540.263 321.051 540.753 321.051 541.32C321.051 541.887 320.848 542.377 320.441 542.79C320.041 543.203 319.548 543.41 318.961 543.41C318.374 543.41 317.874 543.203 317.461 542.79C317.054 542.377 316.851 541.887 316.851 541.32ZM308.851 548.23C308.851 547.663 309.058 547.177 309.471 546.77C309.878 546.363 310.374 546.16 310.961 546.16C311.548 546.16 312.044 546.363 312.451 546.77C312.851 547.177 313.051 547.663 313.051 548.23C313.051 548.803 312.851 549.3 312.451 549.72C312.044 550.133 311.548 550.34 310.961 550.34C310.374 550.34 309.878 550.133 309.471 549.72C309.058 549.3 308.851 548.803 308.851 548.23ZM308.851 541.32C308.851 540.94 308.948 540.593 309.141 540.28C309.328 539.96 309.581 539.703 309.901 539.51C310.221 539.317 310.574 539.22 310.961 539.22C311.548 539.22 312.044 539.43 312.451 539.85C312.851 540.263 313.051 540.753 313.051 541.32C313.051 541.887 312.851 542.377 312.451 542.79C312.044 543.203 311.548 543.41 310.961 543.41C310.374 543.41 309.878 543.203 309.471 542.79C309.058 542.377 308.851 541.887 308.851 541.32ZM328.453 550V547.88H329.853V541.48H328.453V539.38H332.263L332.843 541.77C333.223 540.857 333.706 540.177 334.293 539.73C334.886 539.283 335.61 539.06 336.463 539.06C336.823 539.06 337.143 539.09 337.423 539.15C337.703 539.203 337.966 539.28 338.213 539.38L337.253 541.99C337.06 541.937 336.866 541.897 336.673 541.87C336.48 541.843 336.266 541.83 336.033 541.83C335.34 541.83 334.73 542.113 334.203 542.68C333.683 543.247 333.286 543.967 333.013 544.84V547.88H335.113V550H328.453ZM335.643 543.82V540.72L336.113 539.38H338.213L337.623 543.82H335.643ZM343.505 539.38V546.65C343.505 547.163 343.599 547.517 343.785 547.71C343.979 547.903 344.245 548 344.585 548C344.912 548 345.239 547.897 345.565 547.69C345.892 547.483 346.165 547.203 346.385 546.85V539.38H349.545V550H346.785L346.645 548.76C346.285 549.28 345.812 549.673 345.225 549.94C344.639 550.207 344.025 550.34 343.385 550.34C342.359 550.34 341.595 550.043 341.095 549.45C340.595 548.85 340.345 548.047 340.345 547.04V539.38H343.505ZM352.338 550V539.38H355.098L355.318 540.61C355.791 540.077 356.291 539.68 356.817 539.42C357.344 539.16 357.944 539.03 358.618 539.03C359.524 539.03 360.238 539.307 360.758 539.86C361.278 540.413 361.538 541.193 361.538 542.2V550H358.378V543.11C358.378 542.677 358.348 542.333 358.288 542.08C358.228 541.82 358.121 541.637 357.968 541.53C357.821 541.417 357.618 541.36 357.358 541.36C357.138 541.36 356.921 541.41 356.708 541.51C356.501 541.603 356.298 541.74 356.098 541.92C355.898 542.1 355.698 542.317 355.498 542.57V550H352.338Z" fill="#E5E7EB"/>
<path d="M183 362C183 359.239 185.239 357 188 357H282C284.761 357 287 359.239 287 362V420C287 422.761 284.761 425 282 425H188C185.239 425 183 422.761 183 420V362Z" fill="#354150"/>
<path d="M207.023 382.01H202.963L202.233 385H198.803L203.043 371.14H207.023L211.263 385H207.753L207.023 382.01ZM203.483 379.63H206.483L204.983 373.5L203.483 379.63ZM218.046 382.85C218.479 382.85 218.886 382.767 219.266 382.6C219.652 382.427 220.036 382.207 220.416 381.94L221.826 383.94C221.359 384.34 220.789 384.673 220.116 384.94C219.449 385.207 218.702 385.34 217.876 385.34C216.736 385.34 215.756 385.107 214.936 384.64C214.116 384.167 213.486 383.513 213.046 382.68C212.606 381.84 212.386 380.867 212.386 379.76C212.386 378.653 212.609 377.67 213.056 376.81C213.509 375.943 214.149 375.263 214.976 374.77C215.809 374.277 216.796 374.03 217.936 374.03C218.742 374.03 219.459 374.143 220.086 374.37C220.719 374.59 221.299 374.92 221.826 375.36L220.456 377.26C220.096 377.007 219.716 376.81 219.316 376.67C218.916 376.53 218.499 376.46 218.066 376.46C217.352 376.46 216.776 376.713 216.336 377.22C215.902 377.72 215.686 378.567 215.686 379.76C215.686 380.54 215.789 381.157 215.996 381.61C216.202 382.057 216.482 382.377 216.836 382.57C217.196 382.757 217.599 382.85 218.046 382.85ZM233.968 384.38C233.554 384.647 233.054 384.873 232.468 385.06C231.881 385.247 231.221 385.34 230.488 385.34C229.101 385.34 228.071 384.987 227.398 384.28C226.724 383.567 226.388 382.6 226.388 381.38V376.56H224.158V374.38H226.388V372.08L229.548 371.7V374.38H232.968L232.658 376.56H229.548V381.38C229.548 381.907 229.668 382.283 229.908 382.51C230.148 382.737 230.531 382.85 231.058 382.85C231.431 382.85 231.771 382.807 232.078 382.72C232.391 382.627 232.671 382.51 232.918 382.37L233.968 384.38ZM242.89 374.38V382.84H245.59V385H236.72V382.84H239.73V376.54H236.82V374.38H242.89ZM240.98 368.82C241.527 368.82 241.973 368.99 242.32 369.33C242.667 369.67 242.84 370.093 242.84 370.6C242.84 371.107 242.667 371.533 242.32 371.88C241.973 372.22 241.527 372.39 240.98 372.39C240.427 372.39 239.973 372.22 239.62 371.88C239.273 371.533 239.1 371.107 239.1 370.6C239.1 370.093 239.273 369.67 239.62 369.33C239.973 368.99 240.427 368.82 240.98 368.82ZM252.992 374.03C254.086 374.03 255.016 374.263 255.782 374.73C256.549 375.197 257.136 375.853 257.542 376.7C257.949 377.54 258.152 378.527 258.152 379.66C258.152 380.84 257.946 381.857 257.532 382.71C257.126 383.557 256.539 384.207 255.772 384.66C255.006 385.113 254.079 385.34 252.992 385.34C251.912 385.34 250.986 385.117 250.212 384.67C249.446 384.223 248.856 383.577 248.442 382.73C248.036 381.883 247.832 380.867 247.832 379.68C247.832 378.553 248.036 377.567 248.442 376.72C248.856 375.873 249.446 375.213 250.212 374.74C250.986 374.267 251.912 374.03 252.992 374.03ZM252.992 376.36C252.346 376.36 251.866 376.627 251.552 377.16C251.246 377.687 251.092 378.527 251.092 379.68C251.092 380.853 251.246 381.703 251.552 382.23C251.866 382.757 252.346 383.02 252.992 383.02C253.639 383.02 254.116 382.757 254.422 382.23C254.736 381.703 254.892 380.847 254.892 379.66C254.892 378.513 254.736 377.677 254.422 377.15C254.116 376.623 253.639 376.36 252.992 376.36ZM260.384 385V374.38H263.144L263.364 375.61C263.838 375.077 264.338 374.68 264.864 374.42C265.391 374.16 265.991 374.03 266.664 374.03C267.571 374.03 268.284 374.307 268.804 374.86C269.324 375.413 269.584 376.193 269.584 377.2V385H266.424V378.11C266.424 377.677 266.394 377.333 266.334 377.08C266.274 376.82 266.168 376.637 266.014 376.53C265.868 376.417 265.664 376.36 265.404 376.36C265.184 376.36 264.968 376.41 264.754 376.51C264.548 376.603 264.344 376.74 264.144 376.92C263.944 377.1 263.744 377.317 263.544 377.57V385H260.384ZM200.307 400.03C201.234 400.03 201.981 400.26 202.547 400.72C203.114 401.18 203.527 401.83 203.787 402.67C204.054 403.51 204.187 404.507 204.187 405.66C204.187 406.753 204.027 407.73 203.707 408.59C203.387 409.443 202.924 410.117 202.317 410.61C201.711 411.097 200.974 411.34 200.107 411.34C199.074 411.34 198.234 410.97 197.587 410.23V415.1L194.427 415.43V400.38H197.227L197.367 401.57C197.801 401.017 198.274 400.623 198.787 400.39C199.301 400.15 199.807 400.03 200.307 400.03ZM199.327 402.36C198.961 402.36 198.637 402.47 198.357 402.69C198.077 402.91 197.821 403.21 197.587 403.59V408.07C197.807 408.397 198.037 408.637 198.277 408.79C198.524 408.943 198.814 409.02 199.147 409.02C199.707 409.02 200.144 408.767 200.457 408.26C200.771 407.747 200.927 406.893 200.927 405.7C200.927 404.82 200.864 404.14 200.737 403.66C200.611 403.173 200.427 402.837 200.187 402.65C199.947 402.457 199.661 402.36 199.327 402.36ZM209.58 400.38V407.65C209.58 408.163 209.673 408.517 209.86 408.71C210.053 408.903 210.32 409 210.66 409C210.986 409 211.313 408.897 211.64 408.69C211.966 408.483 212.24 408.203 212.46 407.85V400.38H215.62V411H212.86L212.72 409.76C212.36 410.28 211.886 410.673 211.3 410.94C210.713 411.207 210.1 411.34 209.46 411.34C208.433 411.34 207.67 411.043 207.17 410.45C206.67 409.85 206.42 409.047 206.42 408.04V400.38H209.58ZM221.572 401.47C221.905 401.03 222.305 400.68 222.772 400.42C223.245 400.16 223.752 400.03 224.292 400.03C225.205 400.03 225.948 400.26 226.522 400.72C227.102 401.18 227.528 401.83 227.802 402.67C228.075 403.51 228.212 404.507 228.212 405.66C228.212 406.753 228.048 407.73 227.722 408.59C227.402 409.443 226.925 410.117 226.292 410.61C225.658 411.097 224.882 411.34 223.962 411.34C222.848 411.34 221.972 410.907 221.332 410.04L221.212 411H218.412V396.16L221.572 395.83V401.47ZM223.132 409.04C223.692 409.04 224.135 408.783 224.462 408.27C224.788 407.75 224.952 406.893 224.952 405.7C224.952 404.82 224.882 404.14 224.742 403.66C224.608 403.173 224.415 402.837 224.162 402.65C223.915 402.457 223.625 402.36 223.292 402.36C222.938 402.36 222.622 402.47 222.342 402.69C222.062 402.91 221.805 403.21 221.572 403.59V408.07C221.772 408.383 221.995 408.623 222.242 408.79C222.488 408.957 222.785 409.04 223.132 409.04ZM232.044 413.24L229.574 412.11L237.984 394.66L240.434 395.79L232.044 413.24ZM246.656 409.08C247.183 409.08 247.606 408.997 247.926 408.83C248.253 408.663 248.416 408.413 248.416 408.08C248.416 407.853 248.353 407.663 248.226 407.51C248.099 407.357 247.856 407.21 247.496 407.07C247.136 406.93 246.603 406.763 245.896 406.57C245.249 406.397 244.676 406.177 244.176 405.91C243.683 405.643 243.296 405.3 243.016 404.88C242.743 404.46 242.606 403.937 242.606 403.31C242.606 402.677 242.783 402.113 243.136 401.62C243.489 401.127 244.009 400.74 244.696 400.46C245.383 400.173 246.223 400.03 247.216 400.03C248.163 400.03 248.986 400.153 249.686 400.4C250.393 400.64 251.003 400.947 251.516 401.32L250.256 403.18C249.816 402.907 249.343 402.69 248.836 402.53C248.329 402.363 247.819 402.28 247.306 402.28C246.793 402.28 246.409 402.35 246.156 402.49C245.909 402.623 245.786 402.827 245.786 403.1C245.786 403.28 245.849 403.437 245.976 403.57C246.109 403.697 246.356 403.83 246.716 403.97C247.076 404.103 247.603 404.27 248.296 404.47C248.983 404.663 249.579 404.887 250.086 405.14C250.599 405.393 250.996 405.733 251.276 406.16C251.556 406.58 251.696 407.137 251.696 407.83C251.696 408.603 251.466 409.253 251.006 409.78C250.546 410.3 249.936 410.69 249.176 410.95C248.416 411.21 247.583 411.34 246.676 411.34C245.649 411.34 244.743 411.193 243.956 410.9C243.169 410.607 242.499 410.22 241.946 409.74L243.536 407.96C243.949 408.28 244.416 408.547 244.936 408.76C245.463 408.973 246.036 409.08 246.656 409.08ZM257.548 400.38V407.65C257.548 408.163 257.642 408.517 257.828 408.71C258.022 408.903 258.288 409 258.628 409C258.955 409 259.282 408.897 259.608 408.69C259.935 408.483 260.208 408.203 260.428 407.85V400.38H263.588V411H260.828L260.688 409.76C260.328 410.28 259.855 410.673 259.268 410.94C258.682 411.207 258.068 411.34 257.428 411.34C256.402 411.34 255.638 411.043 255.138 410.45C254.638 409.85 254.388 409.047 254.388 408.04V400.38H257.548ZM269.54 401.47C269.874 401.03 270.274 400.68 270.74 400.42C271.214 400.16 271.72 400.03 272.26 400.03C273.174 400.03 273.917 400.26 274.49 400.72C275.07 401.18 275.497 401.83 275.77 402.67C276.044 403.51 276.18 404.507 276.18 405.66C276.18 406.753 276.017 407.73 275.69 408.59C275.37 409.443 274.894 410.117 274.26 410.61C273.627 411.097 272.85 411.34 271.93 411.34C270.817 411.34 269.94 410.907 269.3 410.04L269.18 411H266.38V396.16L269.54 395.83V401.47ZM271.1 409.04C271.66 409.04 272.104 408.783 272.43 408.27C272.757 407.75 272.92 406.893 272.92 405.7C272.92 404.82 272.85 404.14 272.71 403.66C272.577 403.173 272.384 402.837 272.13 402.65C271.884 402.457 271.594 402.36 271.26 402.36C270.907 402.36 270.59 402.47 270.31 402.69C270.03 402.91 269.774 403.21 269.54 403.59V408.07C269.74 408.383 269.964 408.623 270.21 408.79C270.457 408.957 270.754 409.04 271.1 409.04Z" fill="#E5E7EB"/>
<path d="M331 58C331 55.2386 333.239 53 336 53H430C432.761 53 435 55.2386 435 58V116C435 118.761 432.761 121 430 121H336C333.239 121 331 118.761 331 116V58Z" fill="#354150"/>
<path d="M366.872 94V80.14H370.152V91.41H376.162L375.822 94H366.872ZM382.144 82.48V85.81H386.944V88.11H382.144V91.65H387.934V94H378.864V80.14H387.924L387.594 82.48H382.144ZM397.086 87C397.086 86.0667 397.006 85.3067 396.846 84.72C396.693 84.1333 396.476 83.68 396.196 83.36C395.923 83.04 395.599 82.82 395.226 82.7C394.853 82.58 394.449 82.52 394.016 82.52H393.316V91.63H394.016C394.469 91.63 394.883 91.56 395.256 91.42C395.636 91.2733 395.963 91.03 396.236 90.69C396.509 90.3433 396.719 89.87 396.866 89.27C397.013 88.67 397.086 87.9133 397.086 87ZM400.486 87C400.486 88.1267 400.366 89.0933 400.126 89.9C399.886 90.7 399.549 91.3667 399.116 91.9C398.689 92.4333 398.193 92.8533 397.626 93.16C397.059 93.4667 396.449 93.6833 395.796 93.81C395.143 93.9367 394.469 94 393.776 94H390.036V80.14H393.536C394.423 80.14 395.279 80.2333 396.106 80.42C396.939 80.6 397.683 80.9367 398.336 81.43C398.996 81.9167 399.519 82.61 399.906 83.51C400.293 84.4033 400.486 85.5667 400.486 87Z" fill="#E5E7EB"/>
<path d="M183 58C183 55.2386 185.239 53 188 53H282C284.761 53 287 55.2386 287 58V116C287 118.761 284.761 121 282 121H188C185.239 121 183 118.761 183 116V58Z" fill="#354150"/>
<path d="M207.063 89.81C207.063 89.3233 206.967 88.94 206.773 88.66C206.587 88.3733 206.32 88.17 205.973 88.05C205.633 87.93 205.233 87.87 204.773 87.87H203.423V91.61H204.633C204.953 91.61 205.257 91.5867 205.543 91.54C205.837 91.4933 206.097 91.4067 206.323 91.28C206.557 91.1533 206.737 90.9733 206.863 90.74C206.997 90.5 207.063 90.19 207.063 89.81ZM206.543 84.01C206.543 83.4633 206.37 83.07 206.023 82.83C205.683 82.5833 205.153 82.46 204.433 82.46H203.423V85.67H204.533C205.24 85.67 205.75 85.54 206.063 85.28C206.383 85.02 206.543 84.5967 206.543 84.01ZM210.443 89.94C210.443 90.74 210.29 91.4033 209.983 91.93C209.677 92.4567 209.257 92.87 208.723 93.17C208.19 93.47 207.58 93.6833 206.893 93.81C206.213 93.9367 205.497 94 204.743 94H200.143V80.14H204.533C205.247 80.14 205.92 80.2 206.553 80.32C207.193 80.4333 207.76 80.6267 208.253 80.9C208.747 81.1667 209.133 81.53 209.413 81.99C209.7 82.4433 209.843 83.0067 209.843 83.68C209.843 84.2333 209.727 84.7133 209.493 85.12C209.26 85.52 208.95 85.85 208.563 86.11C208.177 86.3633 207.757 86.5467 207.303 86.66C207.797 86.74 208.283 86.8967 208.763 87.13C209.25 87.3567 209.65 87.6967 209.963 88.15C210.283 88.6033 210.443 89.2 210.443 89.94ZM215.576 83.38V90.65C215.576 91.1633 215.669 91.5167 215.856 91.71C216.049 91.9033 216.316 92 216.656 92C216.982 92 217.309 91.8967 217.636 91.69C217.962 91.4833 218.236 91.2033 218.456 90.85V83.38H221.616V94H218.856L218.716 92.76C218.356 93.28 217.882 93.6733 217.296 93.94C216.709 94.2067 216.096 94.34 215.456 94.34C214.429 94.34 213.666 94.0433 213.166 93.45C212.666 92.85 212.416 92.0467 212.416 91.04V83.38H215.576ZM233.968 93.38C233.554 93.6467 233.054 93.8733 232.468 94.06C231.881 94.2467 231.221 94.34 230.488 94.34C229.101 94.34 228.071 93.9867 227.398 93.28C226.724 92.5667 226.388 91.6 226.388 90.38V85.56H224.158V83.38H226.388V81.08L229.548 80.7V83.38H232.968L232.658 85.56H229.548V90.38C229.548 90.9067 229.668 91.2833 229.908 91.51C230.148 91.7367 230.531 91.85 231.058 91.85C231.431 91.85 231.771 91.8067 232.078 91.72C232.391 91.6267 232.671 91.51 232.918 91.37L233.968 93.38ZM245.96 93.38C245.547 93.6467 245.047 93.8733 244.46 94.06C243.873 94.2467 243.213 94.34 242.48 94.34C241.093 94.34 240.063 93.9867 239.39 93.28C238.717 92.5667 238.38 91.6 238.38 90.38V85.56H236.15V83.38H238.38V81.08L241.54 80.7V83.38H244.96L244.65 85.56H241.54V90.38C241.54 90.9067 241.66 91.2833 241.9 91.51C242.14 91.7367 242.523 91.85 243.05 91.85C243.423 91.85 243.763 91.8067 244.07 91.72C244.383 91.6267 244.663 91.51 244.91 91.37L245.96 93.38ZM252.992 83.03C254.086 83.03 255.016 83.2633 255.782 83.73C256.549 84.1967 257.136 84.8533 257.542 85.7C257.949 86.54 258.152 87.5267 258.152 88.66C258.152 89.84 257.946 90.8567 257.532 91.71C257.126 92.5567 256.539 93.2067 255.772 93.66C255.006 94.1133 254.079 94.34 252.992 94.34C251.912 94.34 250.986 94.1167 250.212 93.67C249.446 93.2233 248.856 92.5767 248.442 91.73C248.036 90.8833 247.832 89.8667 247.832 88.68C247.832 87.5533 248.036 86.5667 248.442 85.72C248.856 84.8733 249.446 84.2133 250.212 83.74C250.986 83.2667 251.912 83.03 252.992 83.03ZM252.992 85.36C252.346 85.36 251.866 85.6267 251.552 86.16C251.246 86.6867 251.092 87.5267 251.092 88.68C251.092 89.8533 251.246 90.7033 251.552 91.23C251.866 91.7567 252.346 92.02 252.992 92.02C253.639 92.02 254.116 91.7567 254.422 91.23C254.736 90.7033 254.892 89.8467 254.892 88.66C254.892 87.5133 254.736 86.6767 254.422 86.15C254.116 85.6233 253.639 85.36 252.992 85.36ZM260.384 94V83.38H263.144L263.364 84.61C263.838 84.0767 264.338 83.68 264.864 83.42C265.391 83.16 265.991 83.03 266.664 83.03C267.571 83.03 268.284 83.3067 268.804 83.86C269.324 84.4133 269.584 85.1933 269.584 86.2V94H266.424V87.11C266.424 86.6767 266.394 86.3333 266.334 86.08C266.274 85.82 266.168 85.6367 266.014 85.53C265.868 85.4167 265.664 85.36 265.404 85.36C265.184 85.36 264.968 85.41 264.754 85.51C264.548 85.6033 264.344 85.74 264.144 85.92C263.944 86.1 263.744 86.3167 263.544 86.57V94H260.384Z" fill="#E5E7EB"/>
<path d="M331 362C331 359.239 333.239 357 336 357H430C432.761 357 435 359.239 435 362V420C435 422.761 432.761 425 430 425H336C333.239 425 331 422.761 331 420V362Z" fill="#354150"/>
<path d="M358.16 373.48V376.81H362.96V379.11H358.16V382.65H363.95V385H354.88V371.14H363.94L363.61 373.48H358.16ZM376.432 374.38L372.892 385H369.172L365.592 374.38H369.002L371.072 382.58L373.232 374.38H376.432ZM381.144 380.61C381.217 381.19 381.367 381.66 381.594 382.02C381.827 382.373 382.124 382.633 382.484 382.8C382.844 382.96 383.247 383.04 383.694 383.04C384.181 383.04 384.651 382.96 385.104 382.8C385.557 382.64 385.994 382.427 386.414 382.16L387.684 383.88C387.184 384.307 386.577 384.657 385.864 384.93C385.157 385.203 384.351 385.34 383.444 385.34C382.231 385.34 381.214 385.1 380.394 384.62C379.574 384.133 378.957 383.467 378.544 382.62C378.131 381.773 377.924 380.8 377.924 379.7C377.924 378.653 378.124 377.703 378.524 376.85C378.924 375.99 379.507 375.307 380.274 374.8C381.047 374.287 381.991 374.03 383.104 374.03C384.117 374.03 384.994 374.247 385.734 374.68C386.481 375.113 387.057 375.737 387.464 376.55C387.877 377.363 388.084 378.34 388.084 379.48C388.084 379.66 388.077 379.853 388.064 380.06C388.057 380.267 388.044 380.45 388.024 380.61H381.144ZM383.104 376.15C382.537 376.15 382.081 376.353 381.734 376.76C381.387 377.167 381.177 377.817 381.104 378.71H385.004C384.997 377.937 384.847 377.317 384.554 376.85C384.261 376.383 383.777 376.15 383.104 376.15ZM390.396 385V374.38H393.156L393.376 375.61C393.849 375.077 394.349 374.68 394.876 374.42C395.403 374.16 396.003 374.03 396.676 374.03C397.583 374.03 398.296 374.307 398.816 374.86C399.336 375.413 399.596 376.193 399.596 377.2V385H396.436V378.11C396.436 377.677 396.406 377.333 396.346 377.08C396.286 376.82 396.179 376.637 396.026 376.53C395.879 376.417 395.676 376.36 395.416 376.36C395.196 376.36 394.979 376.41 394.766 376.51C394.559 376.603 394.356 376.74 394.156 376.92C393.956 377.1 393.756 377.317 393.556 377.57V385H390.396ZM411.948 384.38C411.535 384.647 411.035 384.873 410.448 385.06C409.862 385.247 409.202 385.34 408.468 385.34C407.082 385.34 406.052 384.987 405.378 384.28C404.705 383.567 404.368 382.6 404.368 381.38V376.56H402.138V374.38H404.368V372.08L407.528 371.7V374.38H410.948L410.638 376.56H407.528V381.38C407.528 381.907 407.648 382.283 407.888 382.51C408.128 382.737 408.512 382.85 409.038 382.85C409.412 382.85 409.752 382.807 410.058 382.72C410.372 382.627 410.652 382.51 410.898 382.37L411.948 384.38ZM348.307 400.03C349.234 400.03 349.981 400.26 350.547 400.72C351.114 401.18 351.527 401.83 351.787 402.67C352.054 403.51 352.187 404.507 352.187 405.66C352.187 406.753 352.027 407.73 351.707 408.59C351.387 409.443 350.924 410.117 350.317 410.61C349.711 411.097 348.974 411.34 348.107 411.34C347.074 411.34 346.234 410.97 345.587 410.23V415.1L342.427 415.43V400.38H345.227L345.367 401.57C345.801 401.017 346.274 400.623 346.787 400.39C347.301 400.15 347.807 400.03 348.307 400.03ZM347.327 402.36C346.961 402.36 346.637 402.47 346.357 402.69C346.077 402.91 345.821 403.21 345.587 403.59V408.07C345.807 408.397 346.037 408.637 346.277 408.79C346.524 408.943 346.814 409.02 347.147 409.02C347.707 409.02 348.144 408.767 348.457 408.26C348.771 407.747 348.927 406.893 348.927 405.7C348.927 404.82 348.864 404.14 348.737 403.66C348.611 403.173 348.427 402.837 348.187 402.65C347.947 402.457 347.661 402.36 347.327 402.36ZM357.58 400.38V407.65C357.58 408.163 357.673 408.517 357.86 408.71C358.053 408.903 358.32 409 358.66 409C358.986 409 359.313 408.897 359.64 408.69C359.966 408.483 360.24 408.203 360.46 407.85V400.38H363.62V411H360.86L360.72 409.76C360.36 410.28 359.886 410.673 359.3 410.94C358.713 411.207 358.1 411.34 357.46 411.34C356.433 411.34 355.67 411.043 355.17 410.45C354.67 409.85 354.42 409.047 354.42 408.04V400.38H357.58ZM369.572 401.47C369.905 401.03 370.305 400.68 370.772 400.42C371.245 400.16 371.752 400.03 372.292 400.03C373.205 400.03 373.948 400.26 374.522 400.72C375.102 401.18 375.528 401.83 375.802 402.67C376.075 403.51 376.212 404.507 376.212 405.66C376.212 406.753 376.048 407.73 375.722 408.59C375.402 409.443 374.925 410.117 374.292 410.61C373.658 411.097 372.882 411.34 371.962 411.34C370.848 411.34 369.972 410.907 369.332 410.04L369.212 411H366.412V396.16L369.572 395.83V401.47ZM371.132 409.04C371.692 409.04 372.135 408.783 372.462 408.27C372.788 407.75 372.952 406.893 372.952 405.7C372.952 404.82 372.882 404.14 372.742 403.66C372.608 403.173 372.415 402.837 372.162 402.65C371.915 402.457 371.625 402.36 371.292 402.36C370.938 402.36 370.622 402.47 370.342 402.69C370.062 402.91 369.805 403.21 369.572 403.59V408.07C369.772 408.383 369.995 408.623 370.242 408.79C370.488 408.957 370.785 409.04 371.132 409.04ZM380.044 413.24L377.574 412.11L385.984 394.66L388.434 395.79L380.044 413.24ZM394.656 409.08C395.183 409.08 395.606 408.997 395.926 408.83C396.253 408.663 396.416 408.413 396.416 408.08C396.416 407.853 396.353 407.663 396.226 407.51C396.099 407.357 395.856 407.21 395.496 407.07C395.136 406.93 394.603 406.763 393.896 406.57C393.249 406.397 392.676 406.177 392.176 405.91C391.683 405.643 391.296 405.3 391.016 404.88C390.743 404.46 390.606 403.937 390.606 403.31C390.606 402.677 390.783 402.113 391.136 401.62C391.489 401.127 392.009 400.74 392.696 400.46C393.383 400.173 394.223 400.03 395.216 400.03C396.163 400.03 396.986 400.153 397.686 400.4C398.393 400.64 399.003 400.947 399.516 401.32L398.256 403.18C397.816 402.907 397.343 402.69 396.836 402.53C396.329 402.363 395.819 402.28 395.306 402.28C394.793 402.28 394.409 402.35 394.156 402.49C393.909 402.623 393.786 402.827 393.786 403.1C393.786 403.28 393.849 403.437 393.976 403.57C394.109 403.697 394.356 403.83 394.716 403.97C395.076 404.103 395.603 404.27 396.296 404.47C396.983 404.663 397.579 404.887 398.086 405.14C398.599 405.393 398.996 405.733 399.276 406.16C399.556 406.58 399.696 407.137 399.696 407.83C399.696 408.603 399.466 409.253 399.006 409.78C398.546 410.3 397.936 410.69 397.176 410.95C396.416 411.21 395.583 411.34 394.676 411.34C393.649 411.34 392.743 411.193 391.956 410.9C391.169 410.607 390.499 410.22 389.946 409.74L391.536 407.96C391.949 408.28 392.416 408.547 392.936 408.76C393.463 408.973 394.036 409.08 394.656 409.08ZM405.548 400.38V407.65C405.548 408.163 405.642 408.517 405.828 408.71C406.022 408.903 406.288 409 406.628 409C406.955 409 407.282 408.897 407.608 408.69C407.935 408.483 408.208 408.203 408.428 407.85V400.38H411.588V411H408.828L408.688 409.76C408.328 410.28 407.855 410.673 407.268 410.94C406.682 411.207 406.068 411.34 405.428 411.34C404.402 411.34 403.638 411.043 403.138 410.45C402.638 409.85 402.388 409.047 402.388 408.04V400.38H405.548ZM417.54 401.47C417.874 401.03 418.274 400.68 418.74 400.42C419.214 400.16 419.72 400.03 420.26 400.03C421.174 400.03 421.917 400.26 422.49 400.72C423.07 401.18 423.497 401.83 423.77 402.67C424.044 403.51 424.18 404.507 424.18 405.66C424.18 406.753 424.017 407.73 423.69 408.59C423.37 409.443 422.894 410.117 422.26 410.61C421.627 411.097 420.85 411.34 419.93 411.34C418.817 411.34 417.94 410.907 417.3 410.04L417.18 411H414.38V396.16L417.54 395.83V401.47ZM419.1 409.04C419.66 409.04 420.104 408.783 420.43 408.27C420.757 407.75 420.92 406.893 420.92 405.7C420.92 404.82 420.85 404.14 420.71 403.66C420.577 403.173 420.384 402.837 420.13 402.65C419.884 402.457 419.594 402.36 419.26 402.36C418.907 402.36 418.59 402.47 418.31 402.69C418.03 402.91 417.774 403.21 417.54 403.59V408.07C417.74 408.383 417.964 408.623 418.21 408.79C418.457 408.957 418.754 409.04 419.1 409.04Z" fill="#E5E7EB"/>
<path d="M329.464 766.176V776H328.08V766.176H324.64V764.984H332.952L332.808 766.176H329.464ZM339.322 764.808C340.042 764.808 340.644 764.899 341.13 765.08C341.615 765.261 342.076 765.528 342.514 765.88L341.738 766.784C341.391 766.491 341.023 766.283 340.634 766.16C340.25 766.032 339.847 765.968 339.426 765.968C338.823 765.968 338.266 766.112 337.754 766.4C337.242 766.683 336.828 767.155 336.514 767.816C336.204 768.472 336.05 769.363 336.05 770.488C336.05 771.581 336.196 772.459 336.49 773.12C336.788 773.781 337.191 774.259 337.698 774.552C338.204 774.845 338.77 774.992 339.394 774.992C340.012 774.992 340.519 774.899 340.914 774.712C341.314 774.525 341.66 774.312 341.954 774.072L342.674 774.984C342.338 775.309 341.9 775.592 341.362 775.832C340.823 776.067 340.162 776.184 339.378 776.184C338.487 776.184 337.679 775.965 336.954 775.528C336.234 775.091 335.663 774.451 335.242 773.608C334.82 772.76 334.61 771.72 334.61 770.488C334.61 769.251 334.823 768.211 335.25 767.368C335.682 766.525 336.255 765.888 336.97 765.456C337.69 765.024 338.474 764.808 339.322 764.808ZM350.612 768.384C350.612 767.813 350.5 767.363 350.276 767.032C350.052 766.696 349.745 766.456 349.356 766.312C348.966 766.163 348.521 766.088 348.02 766.088H346.428V770.792H347.964C348.481 770.792 348.937 770.723 349.332 770.584C349.726 770.44 350.038 770.195 350.268 769.848C350.497 769.496 350.612 769.008 350.612 768.384ZM352.1 768.368C352.1 769.227 351.916 769.915 351.548 770.432C351.185 770.949 350.684 771.325 350.044 771.56C349.404 771.795 348.668 771.912 347.836 771.912H346.428V776H345.036V764.984H347.852C349.164 764.984 350.198 765.261 350.956 765.816C351.718 766.365 352.1 767.216 352.1 768.368ZM354.709 777.648L353.621 777.168L360.469 763.048L361.541 763.576L354.709 777.648ZM370.327 764.984V766.096H367.879V774.888H370.327V776H364.023V774.888H366.471V766.096H364.023V764.984H370.327ZM379.393 768.384C379.393 767.813 379.281 767.363 379.057 767.032C378.833 766.696 378.526 766.456 378.137 766.312C377.747 766.163 377.302 766.088 376.801 766.088H375.209V770.792H376.745C377.262 770.792 377.718 770.723 378.113 770.584C378.507 770.44 378.819 770.195 379.049 769.848C379.278 769.496 379.393 769.008 379.393 768.384ZM380.881 768.368C380.881 769.227 380.697 769.915 380.329 770.432C379.966 770.949 379.465 771.325 378.825 771.56C378.185 771.795 377.449 771.912 376.617 771.912H375.209V776H373.817V764.984H376.633C377.945 764.984 378.979 765.261 379.737 765.816C380.499 766.365 380.881 767.216 380.881 768.368ZM394.556 770.4C394.556 771.232 394.628 771.979 394.772 772.64C394.916 773.296 395.13 773.899 395.412 774.448C395.695 774.992 396.05 775.509 396.476 776C396.908 776.496 397.41 776.997 397.98 777.504L397.276 778.24C396.412 777.531 395.671 776.805 395.052 776.064C394.439 775.323 393.967 774.496 393.636 773.584C393.311 772.672 393.148 771.611 393.148 770.4C393.148 769.184 393.311 768.12 393.636 767.208C393.967 766.296 394.439 765.469 395.052 764.728C395.671 763.987 396.412 763.264 397.276 762.56L397.98 763.296C397.404 763.808 396.9 764.312 396.468 764.808C396.042 765.299 395.687 765.816 395.404 766.36C395.122 766.899 394.908 767.499 394.764 768.16C394.626 768.816 394.556 769.563 394.556 770.4ZM407.91 767.4C408.182 767.4 408.441 767.459 408.686 767.576C408.937 767.693 409.142 767.92 409.302 768.256C409.462 768.592 409.542 769.083 409.542 769.728V776H408.294V769.944C408.294 769.416 408.262 769.035 408.198 768.8C408.134 768.565 407.95 768.448 407.646 768.448C407.395 768.448 407.145 768.528 406.894 768.688C406.649 768.843 406.409 769.099 406.174 769.456V776H404.918V769.944C404.918 769.416 404.886 769.035 404.822 768.8C404.758 768.565 404.574 768.448 404.27 768.448C404.009 768.448 403.755 768.528 403.51 768.688C403.27 768.843 403.033 769.099 402.798 769.456V776H401.558V767.576H402.614L402.694 768.552C402.923 768.227 403.179 767.955 403.462 767.736C403.75 767.512 404.105 767.4 404.526 767.4C404.846 767.4 405.147 767.477 405.43 767.632C405.713 767.781 405.921 768.075 406.054 768.512C406.283 768.181 406.542 767.915 406.83 767.712C407.118 767.504 407.478 767.4 407.91 767.4ZM415.16 767.4C415.954 767.4 416.618 767.581 417.152 767.944C417.69 768.301 418.093 768.808 418.36 769.464C418.632 770.12 418.768 770.893 418.768 771.784C418.768 772.643 418.629 773.403 418.352 774.064C418.074 774.725 417.666 775.245 417.128 775.624C416.594 775.997 415.933 776.184 415.144 776.184C414.354 776.184 413.69 776.003 413.152 775.64C412.613 775.277 412.205 774.768 411.928 774.112C411.656 773.451 411.52 772.68 411.52 771.8C411.52 770.931 411.658 770.165 411.936 769.504C412.213 768.843 412.621 768.328 413.16 767.96C413.704 767.587 414.37 767.4 415.16 767.4ZM415.16 768.496C414.434 768.496 413.885 768.765 413.512 769.304C413.144 769.837 412.96 770.669 412.96 771.8C412.96 772.909 413.141 773.733 413.504 774.272C413.872 774.811 414.418 775.08 415.144 775.08C415.869 775.08 416.413 774.811 416.776 774.272C417.144 773.733 417.328 772.904 417.328 771.784C417.328 770.664 417.146 769.837 416.784 769.304C416.421 768.765 415.88 768.496 415.16 768.496ZM422.89 767.576V773.544C422.89 774.099 423.004 774.499 423.234 774.744C423.463 774.989 423.82 775.112 424.306 775.112C424.77 775.112 425.207 774.981 425.618 774.72C426.034 774.453 426.356 774.139 426.586 773.776V767.576H427.93V776H426.786L426.674 774.864C426.343 775.291 425.935 775.619 425.45 775.848C424.964 776.072 424.474 776.184 423.977 776.184C423.162 776.184 422.551 775.968 422.146 775.536C421.746 775.099 421.546 774.488 421.546 773.704V767.576H422.89ZM431.139 776V767.576H432.283L432.387 768.744C432.729 768.312 433.155 767.981 433.667 767.752C434.185 767.517 434.686 767.4 435.171 767.4C435.998 767.4 436.598 767.619 436.971 768.056C437.35 768.493 437.539 769.101 437.539 769.88V776H436.195V770.872C436.195 770.296 436.163 769.832 436.099 769.48C436.035 769.123 435.902 768.864 435.699 768.704C435.497 768.539 435.182 768.456 434.755 768.456C434.425 768.456 434.113 768.528 433.819 768.672C433.531 768.816 433.273 768.997 433.043 769.216C432.819 769.429 432.633 769.645 432.483 769.864V776H431.139ZM447.421 775.576C447.133 775.768 446.784 775.917 446.373 776.024C445.962 776.131 445.56 776.184 445.165 776.184C444.258 776.184 443.56 775.947 443.069 775.472C442.578 774.997 442.333 774.387 442.333 773.64V768.616H440.397V767.576H442.333V765.664L443.677 765.504V767.576H446.589L446.429 768.616H443.677V773.624C443.677 774.093 443.8 774.451 444.045 774.696C444.296 774.941 444.709 775.064 445.285 775.064C445.6 775.064 445.89 775.027 446.157 774.952C446.424 774.877 446.672 774.781 446.901 774.664L447.421 775.576ZM456.359 774.16C456.359 774.496 456.415 774.741 456.527 774.896C456.639 775.051 456.812 775.165 457.047 775.24L456.719 776.184C456.356 776.136 456.039 776.021 455.767 775.84C455.495 775.653 455.297 775.373 455.175 775C454.871 775.389 454.492 775.685 454.039 775.888C453.585 776.085 453.084 776.184 452.535 776.184C451.692 776.184 451.028 775.947 450.543 775.472C450.057 774.997 449.815 774.368 449.815 773.584C449.815 772.715 450.153 772.048 450.831 771.584C451.508 771.12 452.487 770.888 453.767 770.888H455.007V770.184C455.007 769.576 454.828 769.147 454.471 768.896C454.119 768.64 453.628 768.512 452.999 768.512C452.721 768.512 452.396 768.547 452.023 768.616C451.649 768.68 451.244 768.789 450.807 768.944L450.455 767.928C450.972 767.736 451.457 767.6 451.911 767.52C452.364 767.44 452.796 767.4 453.207 767.4C454.257 767.4 455.044 767.645 455.567 768.136C456.095 768.621 456.359 769.283 456.359 770.12V774.16ZM452.879 775.16C453.295 775.16 453.692 775.056 454.071 774.848C454.449 774.635 454.761 774.341 455.007 773.968V771.8H453.791C452.863 771.8 452.207 771.96 451.823 772.28C451.444 772.6 451.255 773.029 451.255 773.568C451.255 774.091 451.388 774.488 451.655 774.76C451.927 775.027 452.335 775.16 452.879 775.16ZM464.185 767.576V774.936H466.561V776H460.241V774.936H462.841V768.64H460.321V767.576H464.185ZM463.113 763.632C463.411 763.632 463.649 763.723 463.825 763.904C464.006 764.085 464.097 764.307 464.097 764.568C464.097 764.84 464.006 765.069 463.825 765.256C463.649 765.437 463.411 765.528 463.113 765.528C462.83 765.528 462.598 765.437 462.417 765.256C462.235 765.069 462.145 764.84 462.145 764.568C462.145 764.307 462.235 764.085 462.417 763.904C462.598 763.723 462.83 763.632 463.113 763.632ZM469.514 776V767.576H470.658L470.762 768.744C471.104 768.312 471.53 767.981 472.042 767.752C472.56 767.517 473.061 767.4 473.546 767.4C474.373 767.4 474.973 767.619 475.346 768.056C475.725 768.493 475.914 769.101 475.914 769.88V776H474.57V770.872C474.57 770.296 474.538 769.832 474.474 769.48C474.41 769.123 474.277 768.864 474.074 768.704C473.872 768.539 473.557 768.456 473.13 768.456C472.8 768.456 472.488 768.528 472.194 768.672C471.906 768.816 471.648 768.997 471.418 769.216C471.194 769.429 471.008 769.645 470.858 769.864V776H469.514ZM479.092 772.216V771.048H485.508V772.216H479.092ZM494.254 767.4C494.526 767.4 494.784 767.459 495.03 767.576C495.28 767.693 495.486 767.92 495.646 768.256C495.806 768.592 495.886 769.083 495.886 769.728V776H494.638V769.944C494.638 769.416 494.606 769.035 494.542 768.8C494.478 768.565 494.294 768.448 493.99 768.448C493.739 768.448 493.488 768.528 493.238 768.688C492.992 768.843 492.752 769.099 492.518 769.456V776H491.262V769.944C491.262 769.416 491.23 769.035 491.166 768.8C491.102 768.565 490.918 768.448 490.614 768.448C490.352 768.448 490.099 768.528 489.854 768.688C489.614 768.843 489.376 769.099 489.142 769.456V776H487.902V767.576H488.958L489.038 768.552C489.267 768.227 489.523 767.955 489.806 767.736C490.094 767.512 490.448 767.4 490.87 767.4C491.19 767.4 491.491 767.477 491.774 767.632C492.056 767.781 492.264 768.075 492.398 768.512C492.627 768.181 492.886 767.915 493.174 767.712C493.462 767.504 493.822 767.4 494.254 767.4ZM501.072 767.4C501.578 767.4 502.024 767.493 502.408 767.68C502.797 767.867 503.136 768.139 503.424 768.496L503.536 767.576H504.68V779.392L503.336 779.224V774.936C503.032 775.368 502.674 775.685 502.264 775.888C501.858 776.085 501.426 776.184 500.968 776.184C500.216 776.184 499.61 776.003 499.152 775.64C498.698 775.277 498.37 774.768 498.168 774.112C497.965 773.451 497.863 772.68 497.863 771.8C497.863 770.957 497.984 770.205 498.224 769.544C498.469 768.877 498.832 768.355 499.312 767.976C499.792 767.592 500.378 767.4 501.072 767.4ZM501.408 768.48C500.709 768.48 500.184 768.755 499.832 769.304C499.48 769.853 499.304 770.685 499.304 771.8C499.304 772.525 499.376 773.131 499.52 773.616C499.664 774.101 499.877 774.464 500.16 774.704C500.448 774.944 500.81 775.064 501.248 775.064C501.717 775.064 502.125 774.933 502.472 774.672C502.818 774.411 503.106 774.109 503.336 773.768V769.56C503.117 769.219 502.84 768.955 502.504 768.768C502.173 768.576 501.808 768.48 501.408 768.48ZM514.577 775.576C514.289 775.768 513.94 775.917 513.529 776.024C513.119 776.131 512.716 776.184 512.321 776.184C511.415 776.184 510.716 775.947 510.225 775.472C509.735 774.997 509.489 774.387 509.489 773.64V768.616H507.553V767.576H509.489V765.664L510.833 765.504V767.576H513.745L513.585 768.616H510.833V773.624C510.833 774.093 510.956 774.451 511.201 774.696C511.452 774.941 511.865 775.064 512.441 775.064C512.756 775.064 513.047 775.027 513.313 774.952C513.58 774.877 513.828 774.781 514.057 774.664L514.577 775.576ZM524.171 775.576C523.883 775.768 523.534 775.917 523.123 776.024C522.712 776.131 522.31 776.184 521.915 776.184C521.008 776.184 520.31 775.947 519.819 775.472C519.328 774.997 519.083 774.387 519.083 773.64V768.616H517.147V767.576H519.083V765.664L520.427 765.504V767.576H523.339L523.179 768.616H520.427V773.624C520.427 774.093 520.55 774.451 520.795 774.696C521.046 774.941 521.459 775.064 522.035 775.064C522.35 775.064 522.64 775.027 522.907 774.952C523.174 774.877 523.422 774.781 523.651 774.664L524.171 775.576ZM531.669 770.4C531.669 769.563 531.597 768.816 531.453 768.16C531.314 767.499 531.103 766.899 530.821 766.36C530.538 765.816 530.181 765.299 529.749 764.808C529.322 764.312 528.821 763.808 528.245 763.296L528.949 762.56C529.818 763.264 530.559 763.987 531.173 764.728C531.786 765.469 532.255 766.296 532.581 767.208C532.911 768.12 533.077 769.184 533.077 770.4C533.077 771.611 532.911 772.672 532.581 773.584C532.255 774.496 531.786 775.323 531.173 776.064C530.559 776.805 529.818 777.531 528.949 778.24L528.245 777.504C528.815 776.997 529.314 776.496 529.741 776C530.173 775.509 530.53 774.992 530.813 774.448C531.095 773.899 531.309 773.296 531.453 772.64C531.597 771.979 531.669 771.232 531.669 770.4Z" fill="#E5E7EB"/>
<path d="M379.4 462.12V465.832H383.48V466.976H379.4V470.888H384.408V472H378.008V460.984H384.264L384.104 462.12H379.4ZM394.226 463.576L391.162 472H389.602L386.562 463.576H387.986L390.426 470.776L392.834 463.576H394.226ZM397.852 468.264C397.878 468.915 398.004 469.448 398.228 469.864C398.452 470.275 398.748 470.579 399.116 470.776C399.484 470.968 399.884 471.064 400.316 471.064C400.748 471.064 401.137 471 401.484 470.872C401.836 470.744 402.196 470.555 402.564 470.304L403.196 471.192C402.801 471.501 402.35 471.744 401.844 471.92C401.342 472.096 400.828 472.184 400.3 472.184C399.484 472.184 398.788 472 398.212 471.632C397.636 471.264 397.196 470.752 396.892 470.096C396.593 469.435 396.444 468.669 396.444 467.8C396.444 466.947 396.596 466.189 396.9 465.528C397.204 464.867 397.63 464.347 398.18 463.968C398.729 463.589 399.377 463.4 400.124 463.4C400.833 463.4 401.444 463.568 401.956 463.904C402.468 464.235 402.86 464.709 403.132 465.328C403.409 465.941 403.548 466.675 403.548 467.528C403.548 467.672 403.545 467.808 403.54 467.936C403.534 468.059 403.526 468.168 403.516 468.264H397.852ZM400.14 464.504C399.516 464.504 398.993 464.725 398.572 465.168C398.156 465.611 397.918 466.296 397.86 467.224H402.252C402.236 466.323 402.038 465.645 401.66 465.192C401.281 464.733 400.774 464.504 400.14 464.504ZM406.389 472V463.576H407.533L407.637 464.744C407.979 464.312 408.405 463.981 408.917 463.752C409.435 463.517 409.936 463.4 410.421 463.4C411.248 463.4 411.848 463.619 412.221 464.056C412.6 464.493 412.789 465.101 412.789 465.88V472H411.445V466.872C411.445 466.296 411.413 465.832 411.349 465.48C411.285 465.123 411.152 464.864 410.949 464.704C410.747 464.539 410.432 464.456 410.005 464.456C409.675 464.456 409.363 464.528 409.069 464.672C408.781 464.816 408.523 464.997 408.293 465.216C408.069 465.429 407.883 465.645 407.733 465.864V472H406.389ZM422.671 471.576C422.383 471.768 422.034 471.917 421.623 472.024C421.212 472.131 420.81 472.184 420.415 472.184C419.508 472.184 418.81 471.947 418.319 471.472C417.828 470.997 417.583 470.387 417.583 469.64V464.616H415.647V463.576H417.583V461.664L418.927 461.504V463.576H421.839L421.679 464.616H418.927V469.624C418.927 470.093 419.05 470.451 419.295 470.696C419.546 470.941 419.959 471.064 420.535 471.064C420.85 471.064 421.14 471.027 421.407 470.952C421.674 470.877 421.922 470.781 422.151 470.664L422.671 471.576Z" fill="#E5E7EB"/>
<path d="M190.936 469.192H186.576L185.696 472H184.328L187.912 460.984H189.688L193.272 472H191.816L190.936 469.192ZM186.936 468.04H190.576L188.768 462.152L186.936 468.04ZM199.01 471.024C199.431 471.024 199.823 470.955 200.186 470.816C200.554 470.677 200.892 470.501 201.202 470.288L201.858 471.168C201.49 471.483 201.047 471.731 200.53 471.912C200.012 472.093 199.506 472.184 199.01 472.184C198.172 472.184 197.458 472.005 196.866 471.648C196.279 471.285 195.831 470.779 195.522 470.128C195.212 469.472 195.058 468.704 195.058 467.824C195.058 466.981 195.212 466.227 195.522 465.56C195.836 464.888 196.287 464.36 196.874 463.976C197.466 463.592 198.183 463.4 199.026 463.4C199.564 463.4 200.068 463.483 200.538 463.648C201.012 463.808 201.447 464.051 201.842 464.376L201.186 465.272C200.828 465.021 200.468 464.835 200.106 464.712C199.748 464.584 199.383 464.52 199.01 464.52C198.284 464.52 197.687 464.792 197.218 465.336C196.748 465.88 196.514 466.709 196.514 467.824C196.514 468.571 196.62 469.181 196.834 469.656C197.052 470.125 197.348 470.472 197.722 470.696C198.1 470.915 198.53 471.024 199.01 471.024ZM211.484 471.576C211.196 471.768 210.846 471.917 210.436 472.024C210.025 472.131 209.622 472.184 209.228 472.184C208.321 472.184 207.622 471.947 207.132 471.472C206.641 470.997 206.396 470.387 206.396 469.64V464.616H204.46V463.576H206.396V461.664L207.74 461.504V463.576H210.652L210.492 464.616H207.74V469.624C207.74 470.093 207.862 470.451 208.108 470.696C208.358 470.941 208.772 471.064 209.348 471.064C209.662 471.064 209.953 471.027 210.22 470.952C210.486 470.877 210.734 470.781 210.964 470.664L211.484 471.576ZM218.653 463.576V470.936H221.029V472H214.709V470.936H217.309V464.64H214.789V463.576H218.653ZM217.581 459.632C217.88 459.632 218.117 459.723 218.293 459.904C218.475 460.085 218.565 460.307 218.565 460.568C218.565 460.84 218.475 461.069 218.293 461.256C218.117 461.437 217.88 461.528 217.581 461.528C217.299 461.528 217.067 461.437 216.885 461.256C216.704 461.069 216.613 460.84 216.613 460.568C216.613 460.307 216.704 460.085 216.885 459.904C217.067 459.723 217.299 459.632 217.581 459.632ZM227.191 463.4C227.986 463.4 228.65 463.581 229.183 463.944C229.722 464.301 230.124 464.808 230.391 465.464C230.663 466.12 230.799 466.893 230.799 467.784C230.799 468.643 230.66 469.403 230.383 470.064C230.106 470.725 229.698 471.245 229.159 471.624C228.626 471.997 227.964 472.184 227.175 472.184C226.386 472.184 225.722 472.003 225.183 471.64C224.644 471.277 224.236 470.768 223.959 470.112C223.687 469.451 223.551 468.68 223.551 467.8C223.551 466.931 223.69 466.165 223.967 465.504C224.244 464.843 224.652 464.328 225.191 463.96C225.735 463.587 226.402 463.4 227.191 463.4ZM227.191 464.496C226.466 464.496 225.916 464.765 225.543 465.304C225.175 465.837 224.991 466.669 224.991 467.8C224.991 468.909 225.172 469.733 225.535 470.272C225.903 470.811 226.45 471.08 227.175 471.08C227.9 471.08 228.444 470.811 228.807 470.272C229.175 469.733 229.359 468.904 229.359 467.784C229.359 466.664 229.178 465.837 228.815 465.304C228.452 464.765 227.911 464.496 227.191 464.496ZM233.577 472V463.576H234.721L234.825 464.744C235.166 464.312 235.593 463.981 236.105 463.752C236.622 463.517 237.123 463.4 237.609 463.4C238.435 463.4 239.035 463.619 239.409 464.056C239.787 464.493 239.977 465.101 239.977 465.88V472H238.633V466.872C238.633 466.296 238.601 465.832 238.537 465.48C238.473 465.123 238.339 464.864 238.137 464.704C237.934 464.539 237.619 464.456 237.193 464.456C236.862 464.456 236.55 464.528 236.257 464.672C235.969 464.816 235.71 464.997 235.481 465.216C235.257 465.429 235.07 465.645 234.921 465.864V472H233.577Z" fill="#E5E7EB"/>
<path d="M235 210C235 207.239 237.239 205 240 205H389C391.761 205 394 207.239 394 210V268C394 270.761 391.761 273 389 273H240C237.239 273 235 270.761 235 268V210Z" fill="#354150"/>
<path d="M276.56 235.38V242.65C276.56 243.163 276.653 243.517 276.84 243.71C277.033 243.903 277.3 244 277.64 244C277.967 244 278.293 243.897 278.62 243.69C278.947 243.483 279.22 243.203 279.44 242.85V235.38H282.6V246H279.84L279.7 244.76C279.34 245.28 278.867 245.673 278.28 245.94C277.693 246.207 277.08 246.34 276.44 246.34C275.413 246.34 274.65 246.043 274.15 245.45C273.65 244.85 273.4 244.047 273.4 243.04V235.38H276.56ZM291.882 235.38V243.84H294.582V246H285.712V243.84H288.722V237.54H285.812V235.38H291.882ZM289.972 229.82C290.519 229.82 290.966 229.99 291.312 230.33C291.659 230.67 291.832 231.093 291.832 231.6C291.832 232.107 291.659 232.533 291.312 232.88C290.966 233.22 290.519 233.39 289.972 233.39C289.419 233.39 288.966 233.22 288.612 232.88C288.266 232.533 288.092 232.107 288.092 231.6C288.092 231.093 288.266 230.67 288.612 230.33C288.966 229.99 289.419 229.82 289.972 229.82ZM296.984 249.72V247.24H306.984V249.72H296.984ZM318.937 245.38C318.523 245.647 318.023 245.873 317.437 246.06C316.85 246.247 316.19 246.34 315.457 246.34C314.07 246.34 313.04 245.987 312.367 245.28C311.693 244.567 311.357 243.6 311.357 242.38V237.56H309.127V235.38H311.357V233.08L314.517 232.7V235.38H317.937L317.627 237.56H314.517V242.38C314.517 242.907 314.637 243.283 314.877 243.51C315.117 243.737 315.5 243.85 316.027 243.85C316.4 243.85 316.74 243.807 317.047 243.72C317.36 243.627 317.64 243.51 317.887 243.37L318.937 245.38ZM330.309 242.94C330.309 243.34 330.362 243.63 330.469 243.81C330.582 243.99 330.762 244.127 331.009 244.22L330.359 246.3C329.732 246.24 329.202 246.103 328.769 245.89C328.342 245.67 328.005 245.34 327.759 244.9C327.352 245.387 326.832 245.75 326.199 245.99C325.565 246.223 324.919 246.34 324.259 246.34C323.165 246.34 322.292 246.03 321.639 245.41C320.992 244.783 320.669 243.98 320.669 243C320.669 241.847 321.119 240.957 322.019 240.33C322.925 239.703 324.199 239.39 325.839 239.39H327.269V238.99C327.269 238.437 327.089 238.027 326.729 237.76C326.375 237.493 325.855 237.36 325.169 237.36C324.829 237.36 324.392 237.41 323.859 237.51C323.325 237.603 322.792 237.74 322.259 237.92L321.529 235.82C322.215 235.56 322.929 235.363 323.669 235.23C324.415 235.097 325.082 235.03 325.669 235.03C327.249 235.03 328.415 235.353 329.169 236C329.929 236.64 330.309 237.567 330.309 238.78V242.94ZM325.349 244.08C325.689 244.08 326.045 243.98 326.419 243.78C326.792 243.573 327.075 243.283 327.269 242.91V241.19H326.489C325.609 241.19 324.962 241.327 324.549 241.6C324.135 241.867 323.929 242.26 323.929 242.78C323.929 243.187 324.052 243.507 324.299 243.74C324.552 243.967 324.902 244.08 325.349 244.08ZM337.621 244.08C338.148 244.08 338.571 243.997 338.891 243.83C339.218 243.663 339.381 243.413 339.381 243.08C339.381 242.853 339.318 242.663 339.191 242.51C339.064 242.357 338.821 242.21 338.461 242.07C338.101 241.93 337.568 241.763 336.861 241.57C336.214 241.397 335.641 241.177 335.141 240.91C334.648 240.643 334.261 240.3 333.981 239.88C333.708 239.46 333.571 238.937 333.571 238.31C333.571 237.677 333.748 237.113 334.101 236.62C334.454 236.127 334.974 235.74 335.661 235.46C336.348 235.173 337.188 235.03 338.181 235.03C339.128 235.03 339.951 235.153 340.651 235.4C341.358 235.64 341.968 235.947 342.481 236.32L341.221 238.18C340.781 237.907 340.308 237.69 339.801 237.53C339.294 237.363 338.784 237.28 338.271 237.28C337.758 237.28 337.374 237.35 337.121 237.49C336.874 237.623 336.751 237.827 336.751 238.1C336.751 238.28 336.814 238.437 336.941 238.57C337.074 238.697 337.321 238.83 337.681 238.97C338.041 239.103 338.568 239.27 339.261 239.47C339.948 239.663 340.544 239.887 341.051 240.14C341.564 240.393 341.961 240.733 342.241 241.16C342.521 241.58 342.661 242.137 342.661 242.83C342.661 243.603 342.431 244.253 341.971 244.78C341.511 245.3 340.901 245.69 340.141 245.95C339.381 246.21 338.548 246.34 337.641 246.34C336.614 246.34 335.708 246.193 334.921 245.9C334.134 245.607 333.464 245.22 332.911 244.74L334.501 242.96C334.914 243.28 335.381 243.547 335.901 243.76C336.428 243.973 337.001 244.08 337.621 244.08ZM355.433 235.38L351.943 240.08L355.723 246H352.123L348.633 240.18L352.123 235.38H355.433ZM348.513 230.83V246H345.353V231.16L348.513 230.83Z" fill="#E5E7EB"/>
<path d="M150 666C150 663.239 152.239 661 155 661H464.204C466.965 661 469.204 663.239 469.204 666V724C469.204 726.761 466.965 729 464.204 729H155C152.239 729 150 726.761 150 724V666Z" fill="#354150"/>
<path d="M173.15 692.66C173.15 692.167 173.057 691.76 172.87 691.44C172.69 691.113 172.413 690.873 172.04 690.72C171.673 690.56 171.21 690.48 170.65 690.48H169.53V695.01H170.82C171.307 695.01 171.723 694.927 172.07 694.76C172.417 694.593 172.683 694.337 172.87 693.99C173.057 693.643 173.15 693.2 173.15 692.66ZM176.53 692.65C176.53 693.723 176.3 694.61 175.84 695.31C175.38 696.01 174.737 696.533 173.91 696.88C173.083 697.22 172.123 697.39 171.03 697.39H169.53V702H166.25V688.14H170.61C172.49 688.14 173.947 688.513 174.98 689.26C176.013 690.007 176.53 691.137 176.53 692.65ZM182.992 691.03C184.086 691.03 185.016 691.263 185.782 691.73C186.549 692.197 187.136 692.853 187.542 693.7C187.949 694.54 188.152 695.527 188.152 696.66C188.152 697.84 187.946 698.857 187.532 699.71C187.126 700.557 186.539 701.207 185.772 701.66C185.006 702.113 184.079 702.34 182.992 702.34C181.912 702.34 180.986 702.117 180.212 701.67C179.446 701.223 178.856 700.577 178.442 699.73C178.036 698.883 177.832 697.867 177.832 696.68C177.832 695.553 178.036 694.567 178.442 693.72C178.856 692.873 179.446 692.213 180.212 691.74C180.986 691.267 181.912 691.03 182.992 691.03ZM182.992 693.36C182.346 693.36 181.866 693.627 181.552 694.16C181.246 694.687 181.092 695.527 181.092 696.68C181.092 697.853 181.246 698.703 181.552 699.23C181.866 699.757 182.346 700.02 182.992 700.02C183.639 700.02 184.116 699.757 184.422 699.23C184.736 698.703 184.892 697.847 184.892 696.66C184.892 695.513 184.736 694.677 184.422 694.15C184.116 693.623 183.639 693.36 182.992 693.36ZM195.924 687.16V698.66C195.924 699.087 196.044 699.393 196.284 699.58C196.531 699.76 196.868 699.85 197.294 699.85C197.568 699.85 197.831 699.82 198.084 699.76C198.338 699.693 198.574 699.617 198.794 699.53L199.554 701.64C199.194 701.827 198.761 701.99 198.254 702.13C197.748 702.27 197.158 702.34 196.484 702.34C195.204 702.34 194.264 701.973 193.664 701.24C193.064 700.5 192.764 699.51 192.764 698.27V689.32H189.634V687.16H195.924ZM207.917 687.16V698.66C207.917 699.087 208.037 699.393 208.277 699.58C208.523 699.76 208.86 699.85 209.287 699.85C209.56 699.85 209.823 699.82 210.077 699.76C210.33 699.693 210.567 699.617 210.787 699.53L211.547 701.64C211.187 701.827 210.753 701.99 210.247 702.13C209.74 702.27 209.15 702.34 208.477 702.34C207.197 702.34 206.257 701.973 205.657 701.24C205.057 700.5 204.757 699.51 204.757 698.27V689.32H201.627V687.16H207.917ZM220.129 687.79C221.122 687.79 221.965 687.923 222.659 688.19C223.359 688.45 223.999 688.82 224.579 689.3L222.969 691.24C222.589 690.927 222.169 690.68 221.709 690.5C221.249 690.313 220.749 690.22 220.209 690.22C219.629 690.22 219.099 690.387 218.619 690.72C218.139 691.047 217.755 691.567 217.469 692.28C217.182 692.987 217.039 693.907 217.039 695.04C217.039 696.153 217.175 697.063 217.449 697.77C217.729 698.47 218.112 698.987 218.599 699.32C219.085 699.647 219.642 699.81 220.269 699.81C220.962 699.81 221.539 699.68 221.999 699.42C222.459 699.16 222.882 698.877 223.269 698.57L224.759 700.47C224.239 700.983 223.599 701.423 222.839 701.79C222.079 702.157 221.162 702.34 220.089 702.34C218.835 702.34 217.722 702.063 216.749 701.51C215.782 700.95 215.022 700.13 214.469 699.05C213.922 697.963 213.649 696.627 213.649 695.04C213.649 693.493 213.932 692.18 214.499 691.1C215.072 690.02 215.849 689.2 216.829 688.64C217.809 688.073 218.909 687.79 220.129 687.79ZM231.901 687.16V698.66C231.901 699.087 232.021 699.393 232.261 699.58C232.508 699.76 232.844 699.85 233.271 699.85C233.544 699.85 233.808 699.82 234.061 699.76C234.314 699.693 234.551 699.617 234.771 699.53L235.531 701.64C235.171 701.827 234.738 701.99 234.231 702.13C233.724 702.27 233.134 702.34 232.461 702.34C231.181 702.34 230.241 701.973 229.641 701.24C229.041 700.5 228.741 699.51 228.741 698.27V689.32H225.611V687.16H231.901ZM244.843 691.38V699.84H247.543V702H238.673V699.84H241.683V693.54H238.773V691.38H244.843ZM242.933 685.82C243.48 685.82 243.926 685.99 244.273 686.33C244.62 686.67 244.793 687.093 244.793 687.6C244.793 688.107 244.62 688.533 244.273 688.88C243.926 689.22 243.48 689.39 242.933 689.39C242.38 689.39 241.926 689.22 241.573 688.88C241.226 688.533 241.053 688.107 241.053 687.6C241.053 687.093 241.226 686.67 241.573 686.33C241.926 685.99 242.38 685.82 242.933 685.82ZM253.085 697.61C253.159 698.19 253.309 698.66 253.535 699.02C253.769 699.373 254.065 699.633 254.425 699.8C254.785 699.96 255.189 700.04 255.635 700.04C256.122 700.04 256.592 699.96 257.045 699.8C257.499 699.64 257.935 699.427 258.355 699.16L259.625 700.88C259.125 701.307 258.519 701.657 257.805 701.93C257.099 702.203 256.292 702.34 255.385 702.34C254.172 702.34 253.155 702.1 252.335 701.62C251.515 701.133 250.899 700.467 250.485 699.62C250.072 698.773 249.865 697.8 249.865 696.7C249.865 695.653 250.065 694.703 250.465 693.85C250.865 692.99 251.449 692.307 252.215 691.8C252.989 691.287 253.932 691.03 255.045 691.03C256.059 691.03 256.935 691.247 257.675 691.68C258.422 692.113 258.999 692.737 259.405 693.55C259.819 694.363 260.025 695.34 260.025 696.48C260.025 696.66 260.019 696.853 260.005 697.06C259.999 697.267 259.985 697.45 259.965 697.61H253.085ZM255.045 693.15C254.479 693.15 254.022 693.353 253.675 693.76C253.329 694.167 253.119 694.817 253.045 695.71H256.945C256.939 694.937 256.789 694.317 256.495 693.85C256.202 693.383 255.719 693.15 255.045 693.15ZM262.338 702V691.38H265.098L265.318 692.61C265.791 692.077 266.291 691.68 266.817 691.42C267.344 691.16 267.944 691.03 268.618 691.03C269.524 691.03 270.238 691.307 270.758 691.86C271.278 692.413 271.538 693.193 271.538 694.2V702H268.378V695.11C268.378 694.677 268.348 694.333 268.288 694.08C268.228 693.82 268.121 693.637 267.968 693.53C267.821 693.417 267.618 693.36 267.358 693.36C267.138 693.36 266.921 693.41 266.708 693.51C266.501 693.603 266.298 693.74 266.098 693.92C265.898 694.1 265.698 694.317 265.498 694.57V702H262.338ZM283.89 701.38C283.476 701.647 282.976 701.873 282.39 702.06C281.803 702.247 281.143 702.34 280.41 702.34C279.023 702.34 277.993 701.987 277.32 701.28C276.646 700.567 276.31 699.6 276.31 698.38V693.56H274.08V691.38H276.31V689.08L279.47 688.7V691.38H282.89L282.58 693.56H279.47V698.38C279.47 698.907 279.59 699.283 279.83 699.51C280.07 699.737 280.453 699.85 280.98 699.85C281.353 699.85 281.693 699.807 282 699.72C282.313 699.627 282.593 699.51 282.84 699.37L283.89 701.38ZM287.962 704.24L285.492 703.11L293.902 685.66L296.352 686.79L287.962 704.24ZM304.594 702V696.16H301.234V702H297.954V688.14H301.234V693.46H304.594V688.14H307.874V702H304.594ZM319.246 698.94C319.246 699.34 319.3 699.63 319.406 699.81C319.52 699.99 319.7 700.127 319.946 700.22L319.296 702.3C318.67 702.24 318.14 702.103 317.706 701.89C317.28 701.67 316.943 701.34 316.696 700.9C316.29 701.387 315.77 701.75 315.136 701.99C314.503 702.223 313.856 702.34 313.196 702.34C312.103 702.34 311.23 702.03 310.576 701.41C309.93 700.783 309.606 699.98 309.606 699C309.606 697.847 310.056 696.957 310.956 696.33C311.863 695.703 313.136 695.39 314.776 695.39H316.206V694.99C316.206 694.437 316.026 694.027 315.666 693.76C315.313 693.493 314.793 693.36 314.106 693.36C313.766 693.36 313.33 693.41 312.796 693.51C312.263 693.603 311.73 693.74 311.196 693.92L310.466 691.82C311.153 691.56 311.866 691.363 312.606 691.23C313.353 691.097 314.02 691.03 314.606 691.03C316.186 691.03 317.353 691.353 318.106 692C318.866 692.64 319.246 693.567 319.246 694.78V698.94ZM314.286 700.08C314.626 700.08 314.983 699.98 315.356 699.78C315.73 699.573 316.013 699.283 316.206 698.91V697.19H315.426C314.546 697.19 313.9 697.327 313.486 697.6C313.073 697.867 312.866 698.26 312.866 698.78C312.866 699.187 312.99 699.507 313.236 699.74C313.49 699.967 313.84 700.08 314.286 700.08ZM322.298 702V691.38H325.058L325.278 692.61C325.752 692.077 326.252 691.68 326.778 691.42C327.305 691.16 327.905 691.03 328.578 691.03C329.485 691.03 330.198 691.307 330.718 691.86C331.238 692.413 331.498 693.193 331.498 694.2V702H328.338V695.11C328.338 694.677 328.308 694.333 328.248 694.08C328.188 693.82 328.082 693.637 327.928 693.53C327.782 693.417 327.578 693.36 327.318 693.36C327.098 693.36 326.882 693.41 326.668 693.51C326.462 693.603 326.258 693.74 326.058 693.92C325.858 694.1 325.658 694.317 325.458 694.57V702H322.298ZM340.331 686.83L343.491 687.16V702H340.691L340.531 700.83C340.237 701.243 339.847 701.6 339.361 701.9C338.874 702.193 338.284 702.34 337.591 702.34C336.711 702.34 335.981 702.103 335.401 701.63C334.827 701.157 334.397 700.497 334.111 699.65C333.831 698.797 333.691 697.8 333.691 696.66C333.691 695.567 333.861 694.597 334.201 693.75C334.541 692.903 335.027 692.24 335.661 691.76C336.294 691.273 337.047 691.03 337.921 691.03C338.394 691.03 338.834 691.113 339.241 691.28C339.647 691.447 340.011 691.69 340.331 692.01V686.83ZM338.771 693.34C338.224 693.34 337.784 693.6 337.451 694.12C337.117 694.633 336.951 695.487 336.951 696.68C336.951 697.553 337.021 698.233 337.161 698.72C337.301 699.2 337.494 699.537 337.741 699.73C337.987 699.923 338.271 700.02 338.591 700.02C338.944 700.02 339.264 699.91 339.551 699.69C339.844 699.47 340.104 699.17 340.331 698.79V694.21C340.111 693.937 339.877 693.723 339.631 693.57C339.384 693.417 339.097 693.34 338.771 693.34ZM351.823 687.16V698.66C351.823 699.087 351.943 699.393 352.183 699.58C352.429 699.76 352.766 699.85 353.193 699.85C353.466 699.85 353.729 699.82 353.983 699.76C354.236 699.693 354.473 699.617 354.693 699.53L355.453 701.64C355.093 701.827 354.659 701.99 354.153 702.13C353.646 702.27 353.056 702.34 352.383 702.34C351.103 702.34 350.163 701.973 349.563 701.24C348.963 700.5 348.663 699.51 348.663 698.27V689.32H345.533V687.16H351.823ZM361.015 697.61C361.088 698.19 361.238 698.66 361.465 699.02C361.698 699.373 361.995 699.633 362.355 699.8C362.715 699.96 363.118 700.04 363.565 700.04C364.052 700.04 364.522 699.96 364.975 699.8C365.428 699.64 365.865 699.427 366.285 699.16L367.555 700.88C367.055 701.307 366.448 701.657 365.735 701.93C365.028 702.203 364.222 702.34 363.315 702.34C362.102 702.34 361.085 702.1 360.265 701.62C359.445 701.133 358.828 700.467 358.415 699.62C358.002 698.773 357.795 697.8 357.795 696.7C357.795 695.653 357.995 694.703 358.395 693.85C358.795 692.99 359.378 692.307 360.145 691.8C360.918 691.287 361.862 691.03 362.975 691.03C363.988 691.03 364.865 691.247 365.605 691.68C366.352 692.113 366.928 692.737 367.335 693.55C367.748 694.363 367.955 695.34 367.955 696.48C367.955 696.66 367.948 696.853 367.935 697.06C367.928 697.267 367.915 697.45 367.895 697.61H361.015ZM362.975 693.15C362.408 693.15 361.952 693.353 361.605 693.76C361.258 694.167 361.048 694.817 360.975 695.71H364.875C364.868 694.937 364.718 694.317 364.425 693.85C364.132 693.383 363.648 693.15 362.975 693.15ZM370.367 702V699.88H371.767V693.48H370.367V691.38H374.177L374.757 693.77C375.137 692.857 375.621 692.177 376.207 691.73C376.801 691.283 377.524 691.06 378.377 691.06C378.737 691.06 379.057 691.09 379.337 691.15C379.617 691.203 379.881 691.28 380.127 691.38L379.167 693.99C378.974 693.937 378.781 693.897 378.587 693.87C378.394 693.843 378.181 693.83 377.947 693.83C377.254 693.83 376.644 694.113 376.117 694.68C375.597 695.247 375.201 695.967 374.927 696.84V699.88H377.027V702H370.367ZM377.557 695.82V692.72L378.027 691.38H380.127L379.537 695.82H377.557ZM388.019 687.79C389.013 687.79 389.856 687.923 390.549 688.19C391.249 688.45 391.889 688.82 392.469 689.3L390.859 691.24C390.479 690.927 390.059 690.68 389.599 690.5C389.139 690.313 388.639 690.22 388.099 690.22C387.519 690.22 386.989 690.387 386.509 690.72C386.029 691.047 385.646 691.567 385.359 692.28C385.073 692.987 384.929 693.907 384.929 695.04C384.929 696.153 385.066 697.063 385.339 697.77C385.619 698.47 386.003 698.987 386.489 699.32C386.976 699.647 387.533 699.81 388.159 699.81C388.853 699.81 389.429 699.68 389.889 699.42C390.349 699.16 390.773 698.877 391.159 698.57L392.649 700.47C392.129 700.983 391.489 701.423 390.729 701.79C389.969 702.157 389.053 702.34 387.979 702.34C386.726 702.34 385.613 702.063 384.639 701.51C383.673 700.95 382.913 700.13 382.359 699.05C381.813 697.963 381.539 696.627 381.539 695.04C381.539 693.493 381.823 692.18 382.389 691.1C382.963 690.02 383.739 689.2 384.719 688.64C385.699 688.073 386.799 687.79 388.019 687.79ZM399.792 687.16V698.66C399.792 699.087 399.912 699.393 400.152 699.58C400.398 699.76 400.735 699.85 401.162 699.85C401.435 699.85 401.698 699.82 401.952 699.76C402.205 699.693 402.442 699.617 402.662 699.53L403.422 701.64C403.062 701.827 402.628 701.99 402.122 702.13C401.615 702.27 401.025 702.34 400.352 702.34C399.072 702.34 398.132 701.973 397.532 701.24C396.932 700.5 396.632 699.51 396.632 698.27V689.32H393.502V687.16H399.792ZM412.734 691.38V699.84H415.434V702H406.564V699.84H409.574V693.54H406.664V691.38H412.734ZM410.824 685.82C411.37 685.82 411.817 685.99 412.164 686.33C412.51 686.67 412.684 687.093 412.684 687.6C412.684 688.107 412.51 688.533 412.164 688.88C411.817 689.22 411.37 689.39 410.824 689.39C410.27 689.39 409.817 689.22 409.464 688.88C409.117 688.533 408.944 688.107 408.944 687.6C408.944 687.093 409.117 686.67 409.464 686.33C409.817 685.99 410.27 685.82 410.824 685.82ZM420.976 697.61C421.049 698.19 421.199 698.66 421.426 699.02C421.659 699.373 421.956 699.633 422.316 699.8C422.676 699.96 423.079 700.04 423.526 700.04C424.013 700.04 424.483 699.96 424.936 699.8C425.389 699.64 425.826 699.427 426.246 699.16L427.516 700.88C427.016 701.307 426.409 701.657 425.696 701.93C424.989 702.203 424.183 702.34 423.276 702.34C422.063 702.34 421.046 702.1 420.226 701.62C419.406 701.133 418.789 700.467 418.376 699.62C417.963 698.773 417.756 697.8 417.756 696.7C417.756 695.653 417.956 694.703 418.356 693.85C418.756 692.99 419.339 692.307 420.106 691.8C420.879 691.287 421.823 691.03 422.936 691.03C423.949 691.03 424.826 691.247 425.566 691.68C426.313 692.113 426.889 692.737 427.296 693.55C427.709 694.363 427.916 695.34 427.916 696.48C427.916 696.66 427.909 696.853 427.896 697.06C427.889 697.267 427.876 697.45 427.856 697.61H420.976ZM422.936 693.15C422.369 693.15 421.913 693.353 421.566 693.76C421.219 694.167 421.009 694.817 420.936 695.71H424.836C424.829 694.937 424.679 694.317 424.386 693.85C424.093 693.383 423.609 693.15 422.936 693.15ZM430.228 702V691.38H432.988L433.208 692.61C433.681 692.077 434.181 691.68 434.708 691.42C435.235 691.16 435.835 691.03 436.508 691.03C437.415 691.03 438.128 691.307 438.648 691.86C439.168 692.413 439.428 693.193 439.428 694.2V702H436.268V695.11C436.268 694.677 436.238 694.333 436.178 694.08C436.118 693.82 436.011 693.637 435.858 693.53C435.711 693.417 435.508 693.36 435.248 693.36C435.028 693.36 434.811 693.41 434.598 693.51C434.391 693.603 434.188 693.74 433.988 693.92C433.788 694.1 433.588 694.317 433.388 694.57V702H430.228ZM451.78 701.38C451.367 701.647 450.867 701.873 450.28 702.06C449.694 702.247 449.034 702.34 448.3 702.34C446.914 702.34 445.884 701.987 445.21 701.28C444.537 700.567 444.2 699.6 444.2 698.38V693.56H441.97V691.38H444.2V689.08L447.36 688.7V691.38H450.78L450.47 693.56H447.36V698.38C447.36 698.907 447.48 699.283 447.72 699.51C447.96 699.737 448.344 699.85 448.87 699.85C449.244 699.85 449.584 699.807 449.89 699.72C450.204 699.627 450.484 699.51 450.73 699.37L451.78 701.38Z" fill="#E5E7EB"/>
<path d="M181 818C181 815.239 183.239 813 186 813H433C435.761 813 438 815.239 438 818V876C438 878.761 435.761 881 433 881H186C183.239 881 181 878.761 181 876V818Z" fill="#354150"/>
<path d="M254.413 840.14L255.193 854H252.333L252.163 848.07C252.15 847.517 252.143 847.023 252.143 846.59C252.15 846.157 252.16 845.75 252.173 845.37C252.186 844.983 252.206 844.597 252.233 844.21C252.266 843.817 252.3 843.39 252.333 842.93L250.773 851.64H248.293L246.613 842.93C246.653 843.37 246.686 843.787 246.713 844.18C246.746 844.567 246.77 844.957 246.783 845.35C246.796 845.743 246.806 846.167 246.813 846.62C246.82 847.067 246.816 847.567 246.803 848.12L246.703 854H243.893L244.673 840.14H248.043L249.583 849.1L251.043 840.14H254.413ZM267.025 847.06C267.025 847.967 266.935 848.82 266.755 849.62C266.575 850.413 266.272 851.117 265.845 851.73C265.418 852.343 264.838 852.837 264.105 853.21C264.832 853.33 265.452 853.51 265.965 853.75C266.485 853.983 266.925 854.32 267.285 854.76C267.652 855.207 267.962 855.803 268.215 856.55L265.535 857.46C265.242 856.767 264.925 856.183 264.585 855.71C264.245 855.237 263.818 854.88 263.305 854.64C262.798 854.4 262.142 854.28 261.335 854.28C260.182 854.28 259.222 853.99 258.455 853.41C257.695 852.83 257.125 852.003 256.745 850.93C256.372 849.85 256.185 848.56 256.185 847.06C256.185 845.593 256.382 844.317 256.775 843.23C257.175 842.143 257.775 841.3 258.575 840.7C259.382 840.093 260.388 839.79 261.595 839.79C262.808 839.79 263.815 840.083 264.615 840.67C265.422 841.257 266.025 842.093 266.425 843.18C266.825 844.267 267.025 845.56 267.025 847.06ZM263.605 847.06C263.605 845.367 263.468 844.133 263.195 843.36C262.922 842.587 262.388 842.2 261.595 842.2C260.815 842.2 260.282 842.59 259.995 843.37C259.715 844.143 259.575 845.373 259.575 847.06C259.575 848.753 259.718 849.99 260.005 850.77C260.298 851.55 260.828 851.94 261.595 851.94C262.395 851.94 262.928 851.55 263.195 850.77C263.468 849.983 263.605 848.747 263.605 847.06ZM275.147 842.65V854H271.867V842.65H267.977V840.14H279.197L278.857 842.65H275.147ZM287.14 842.65V854H283.86V842.65H279.97V840.14H291.19L290.85 842.65H287.14ZM314.864 849.95C314.864 850.81 314.637 851.57 314.184 852.23C313.737 852.89 313.094 853.407 312.254 853.78C311.414 854.153 310.404 854.34 309.224 854.34C307.917 854.34 306.821 854.15 305.934 853.77C305.054 853.383 304.324 852.907 303.744 852.34L305.404 850.5C305.917 850.947 306.484 851.293 307.104 851.54C307.724 851.78 308.404 851.9 309.144 851.9C309.604 851.9 310.007 851.833 310.354 851.7C310.701 851.567 310.971 851.373 311.164 851.12C311.357 850.867 311.454 850.56 311.454 850.2C311.454 849.86 311.377 849.573 311.224 849.34C311.071 849.107 310.811 848.897 310.444 848.71C310.084 848.523 309.581 848.333 308.934 848.14C307.854 847.807 306.984 847.44 306.324 847.04C305.671 846.64 305.194 846.177 304.894 845.65C304.601 845.123 304.454 844.51 304.454 843.81C304.454 842.963 304.687 842.24 305.154 841.64C305.627 841.04 306.261 840.583 307.054 840.27C307.847 839.95 308.721 839.79 309.674 839.79C310.747 839.79 311.694 839.947 312.514 840.26C313.334 840.567 314.044 841.007 314.644 841.58L313.094 843.36C312.627 842.967 312.124 842.677 311.584 842.49C311.044 842.297 310.494 842.2 309.934 842.2C309.521 842.2 309.157 842.253 308.844 842.36C308.531 842.46 308.287 842.61 308.114 842.81C307.941 843.01 307.854 843.26 307.854 843.56C307.854 843.853 307.937 844.1 308.104 844.3C308.271 844.5 308.561 844.69 308.974 844.87C309.387 845.043 309.961 845.247 310.694 845.48C311.567 845.747 312.314 846.067 312.934 846.44C313.561 846.807 314.037 847.27 314.364 847.83C314.697 848.39 314.864 849.097 314.864 849.95ZM319.636 849.61C319.709 850.19 319.859 850.66 320.086 851.02C320.319 851.373 320.616 851.633 320.976 851.8C321.336 851.96 321.739 852.04 322.186 852.04C322.673 852.04 323.143 851.96 323.596 851.8C324.049 851.64 324.486 851.427 324.906 851.16L326.176 852.88C325.676 853.307 325.069 853.657 324.356 853.93C323.649 854.203 322.843 854.34 321.936 854.34C320.723 854.34 319.706 854.1 318.886 853.62C318.066 853.133 317.449 852.467 317.036 851.62C316.623 850.773 316.416 849.8 316.416 848.7C316.416 847.653 316.616 846.703 317.016 845.85C317.416 844.99 317.999 844.307 318.766 843.8C319.539 843.287 320.483 843.03 321.596 843.03C322.609 843.03 323.486 843.247 324.226 843.68C324.973 844.113 325.549 844.737 325.956 845.55C326.369 846.363 326.576 847.34 326.576 848.48C326.576 848.66 326.569 848.853 326.556 849.06C326.549 849.267 326.536 849.45 326.516 849.61H319.636ZM321.596 845.15C321.029 845.15 320.573 845.353 320.226 845.76C319.879 846.167 319.669 846.817 319.596 847.71H323.496C323.489 846.937 323.339 846.317 323.046 845.85C322.753 845.383 322.269 845.15 321.596 845.15ZM328.988 854V851.88H330.388V845.48H328.988V843.38H332.798L333.378 845.77C333.758 844.857 334.242 844.177 334.828 843.73C335.422 843.283 336.145 843.06 336.998 843.06C337.358 843.06 337.678 843.09 337.958 843.15C338.238 843.203 338.502 843.28 338.748 843.38L337.788 845.99C337.595 845.937 337.402 845.897 337.208 845.87C337.015 845.843 336.802 845.83 336.568 845.83C335.875 845.83 335.265 846.113 334.738 846.68C334.218 847.247 333.822 847.967 333.548 848.84V851.88H335.648V854H328.988ZM336.178 847.82V844.72L336.648 843.38H338.748L338.158 847.82H336.178ZM350.9 843.38L347.36 854H343.64L340.06 843.38H343.47L345.54 851.58L347.7 843.38H350.9ZM355.613 849.61C355.686 850.19 355.836 850.66 356.063 851.02C356.296 851.373 356.593 851.633 356.953 851.8C357.313 851.96 357.716 852.04 358.163 852.04C358.649 852.04 359.119 851.96 359.573 851.8C360.026 851.64 360.463 851.427 360.883 851.16L362.153 852.88C361.653 853.307 361.046 853.657 360.333 853.93C359.626 854.203 358.819 854.34 357.913 854.34C356.699 854.34 355.683 854.1 354.863 853.62C354.043 853.133 353.426 852.467 353.013 851.62C352.599 850.773 352.393 849.8 352.393 848.7C352.393 847.653 352.593 846.703 352.993 845.85C353.393 844.99 353.976 844.307 354.743 843.8C355.516 843.287 356.459 843.03 357.573 843.03C358.586 843.03 359.463 843.247 360.203 843.68C360.949 844.113 361.526 844.737 361.933 845.55C362.346 846.363 362.553 847.34 362.553 848.48C362.553 848.66 362.546 848.853 362.533 849.06C362.526 849.267 362.513 849.45 362.493 849.61H355.613ZM357.573 845.15C357.006 845.15 356.549 845.353 356.203 845.76C355.856 846.167 355.646 846.817 355.573 847.71H359.473C359.466 846.937 359.316 846.317 359.023 845.85C358.729 845.383 358.246 845.15 357.573 845.15ZM364.965 854V851.88H366.365V845.48H364.965V843.38H368.775L369.355 845.77C369.735 844.857 370.218 844.177 370.805 843.73C371.398 843.283 372.122 843.06 372.975 843.06C373.335 843.06 373.655 843.09 373.935 843.15C374.215 843.203 374.478 843.28 374.725 843.38L373.765 845.99C373.572 845.937 373.378 845.897 373.185 845.87C372.992 845.843 372.778 845.83 372.545 845.83C371.852 845.83 371.242 846.113 370.715 846.68C370.195 847.247 369.798 847.967 369.525 848.84V851.88H371.625V854H364.965ZM372.155 847.82V844.72L372.625 843.38H374.725L374.135 847.82H372.155Z" fill="#E5E7EB"/>
<path d="M253.586 509.414C254.367 510.195 255.633 510.195 256.414 509.414L269.142 496.686C269.923 495.905 269.923 494.639 269.142 493.858C268.361 493.077 267.095 493.077 266.314 493.858L255 505.172L243.686 493.858C242.905 493.077 241.639 493.077 240.858 493.858C240.077 494.639 240.077 495.905 240.858 496.686L253.586 509.414ZM255 424L253 424L253 508L255 508L257 508L257 424L255 424Z" fill="#E5E7EB"/>
<path d="M364.414 423.586C363.633 422.805 362.367 422.805 361.586 423.586L348.858 436.314C348.077 437.095 348.077 438.361 348.858 439.142C349.639 439.923 350.905 439.923 351.686 439.142L363 427.828L374.314 439.142C375.095 439.923 376.361 439.923 377.142 439.142C377.923 438.361 377.923 437.095 377.142 436.314L364.414 423.586ZM363 509L365 509L365 425L363 425L361 425L361 509L363 509Z" fill="#E5E7EB"/>
<path d="M380.4 310.12V313.832H384.48V314.976H380.4V318.888H385.408V320H379.008V308.984H385.264L385.104 310.12H380.4ZM395.226 311.576L392.162 320H390.602L387.562 311.576H388.986L391.426 318.776L393.834 311.576H395.226ZM398.852 316.264C398.878 316.915 399.004 317.448 399.228 317.864C399.452 318.275 399.748 318.579 400.116 318.776C400.484 318.968 400.884 319.064 401.316 319.064C401.748 319.064 402.137 319 402.484 318.872C402.836 318.744 403.196 318.555 403.564 318.304L404.196 319.192C403.801 319.501 403.35 319.744 402.844 319.92C402.342 320.096 401.828 320.184 401.3 320.184C400.484 320.184 399.788 320 399.212 319.632C398.636 319.264 398.196 318.752 397.892 318.096C397.593 317.435 397.444 316.669 397.444 315.8C397.444 314.947 397.596 314.189 397.9 313.528C398.204 312.867 398.63 312.347 399.18 311.968C399.729 311.589 400.377 311.4 401.124 311.4C401.833 311.4 402.444 311.568 402.956 311.904C403.468 312.235 403.86 312.709 404.132 313.328C404.409 313.941 404.548 314.675 404.548 315.528C404.548 315.672 404.545 315.808 404.54 315.936C404.534 316.059 404.526 316.168 404.516 316.264H398.852ZM401.14 312.504C400.516 312.504 399.993 312.725 399.572 313.168C399.156 313.611 398.918 314.296 398.86 315.224H403.252C403.236 314.323 403.038 313.645 402.66 313.192C402.281 312.733 401.774 312.504 401.14 312.504ZM407.389 320V311.576H408.533L408.637 312.744C408.979 312.312 409.405 311.981 409.917 311.752C410.435 311.517 410.936 311.4 411.421 311.4C412.248 311.4 412.848 311.619 413.221 312.056C413.6 312.493 413.789 313.101 413.789 313.88V320H412.445V314.872C412.445 314.296 412.413 313.832 412.349 313.48C412.285 313.123 412.152 312.864 411.949 312.704C411.747 312.539 411.432 312.456 411.005 312.456C410.675 312.456 410.363 312.528 410.069 312.672C409.781 312.816 409.523 312.997 409.293 313.216C409.069 313.429 408.883 313.645 408.733 313.864V320H407.389ZM423.671 319.576C423.383 319.768 423.034 319.917 422.623 320.024C422.212 320.131 421.81 320.184 421.415 320.184C420.508 320.184 419.81 319.947 419.319 319.472C418.828 318.997 418.583 318.387 418.583 317.64V312.616H416.647V311.576H418.583V309.664L419.927 309.504V311.576H422.839L422.679 312.616H419.927V317.624C419.927 318.093 420.05 318.451 420.295 318.696C420.546 318.941 420.959 319.064 421.535 319.064C421.85 319.064 422.14 319.027 422.407 318.952C422.674 318.877 422.922 318.781 423.151 318.664L423.671 319.576Z" fill="#E5E7EB"/>
<path d="M191.936 317.192H187.576L186.696 320H185.328L188.912 308.984H190.688L194.272 320H192.816L191.936 317.192ZM187.936 316.04H191.576L189.768 310.152L187.936 316.04ZM200.01 319.024C200.431 319.024 200.823 318.955 201.186 318.816C201.554 318.677 201.892 318.501 202.202 318.288L202.858 319.168C202.49 319.483 202.047 319.731 201.53 319.912C201.012 320.093 200.506 320.184 200.01 320.184C199.172 320.184 198.458 320.005 197.866 319.648C197.279 319.285 196.831 318.779 196.522 318.128C196.212 317.472 196.058 316.704 196.058 315.824C196.058 314.981 196.212 314.227 196.522 313.56C196.836 312.888 197.287 312.36 197.874 311.976C198.466 311.592 199.183 311.4 200.026 311.4C200.564 311.4 201.068 311.483 201.538 311.648C202.012 311.808 202.447 312.051 202.842 312.376L202.186 313.272C201.828 313.021 201.468 312.835 201.106 312.712C200.748 312.584 200.383 312.52 200.01 312.52C199.284 312.52 198.687 312.792 198.218 313.336C197.748 313.88 197.514 314.709 197.514 315.824C197.514 316.571 197.62 317.181 197.834 317.656C198.052 318.125 198.348 318.472 198.722 318.696C199.1 318.915 199.53 319.024 200.01 319.024ZM212.484 319.576C212.196 319.768 211.846 319.917 211.436 320.024C211.025 320.131 210.622 320.184 210.228 320.184C209.321 320.184 208.622 319.947 208.132 319.472C207.641 318.997 207.396 318.387 207.396 317.64V312.616H205.46V311.576H207.396V309.664L208.74 309.504V311.576H211.652L211.492 312.616H208.74V317.624C208.74 318.093 208.862 318.451 209.108 318.696C209.358 318.941 209.772 319.064 210.348 319.064C210.662 319.064 210.953 319.027 211.22 318.952C211.486 318.877 211.734 318.781 211.964 318.664L212.484 319.576ZM219.653 311.576V318.936H222.029V320H215.709V318.936H218.309V312.64H215.789V311.576H219.653ZM218.581 307.632C218.88 307.632 219.117 307.723 219.293 307.904C219.475 308.085 219.565 308.307 219.565 308.568C219.565 308.84 219.475 309.069 219.293 309.256C219.117 309.437 218.88 309.528 218.581 309.528C218.299 309.528 218.067 309.437 217.885 309.256C217.704 309.069 217.613 308.84 217.613 308.568C217.613 308.307 217.704 308.085 217.885 307.904C218.067 307.723 218.299 307.632 218.581 307.632ZM228.191 311.4C228.986 311.4 229.65 311.581 230.183 311.944C230.722 312.301 231.124 312.808 231.391 313.464C231.663 314.12 231.799 314.893 231.799 315.784C231.799 316.643 231.66 317.403 231.383 318.064C231.106 318.725 230.698 319.245 230.159 319.624C229.626 319.997 228.964 320.184 228.175 320.184C227.386 320.184 226.722 320.003 226.183 319.64C225.644 319.277 225.236 318.768 224.959 318.112C224.687 317.451 224.551 316.68 224.551 315.8C224.551 314.931 224.69 314.165 224.967 313.504C225.244 312.843 225.652 312.328 226.191 311.96C226.735 311.587 227.402 311.4 228.191 311.4ZM228.191 312.496C227.466 312.496 226.916 312.765 226.543 313.304C226.175 313.837 225.991 314.669 225.991 315.8C225.991 316.909 226.172 317.733 226.535 318.272C226.903 318.811 227.45 319.08 228.175 319.08C228.9 319.08 229.444 318.811 229.807 318.272C230.175 317.733 230.359 316.904 230.359 315.784C230.359 314.664 230.178 313.837 229.815 313.304C229.452 312.765 228.911 312.496 228.191 312.496ZM234.577 320V311.576H235.721L235.825 312.744C236.166 312.312 236.593 311.981 237.105 311.752C237.622 311.517 238.123 311.4 238.609 311.4C239.435 311.4 240.035 311.619 240.409 312.056C240.787 312.493 240.977 313.101 240.977 313.88V320H239.633V314.872C239.633 314.296 239.601 313.832 239.537 313.48C239.473 313.123 239.339 312.864 239.137 312.704C238.934 312.539 238.619 312.456 238.193 312.456C237.862 312.456 237.55 312.528 237.257 312.672C236.969 312.816 236.71 312.997 236.481 313.216C236.257 313.429 236.07 313.645 235.921 313.864V320H234.577Z" fill="#E5E7EB"/>
<path d="M193.032 158.184C192.162 158.184 191.405 157.973 190.76 157.552C190.12 157.131 189.624 156.499 189.272 155.656C188.92 154.813 188.744 153.757 188.744 152.488C188.744 151.539 188.869 150.709 189.12 150C189.376 149.291 189.72 148.699 190.152 148.224C190.589 147.749 191.082 147.395 191.632 147.16C192.186 146.925 192.76 146.808 193.352 146.808C194.072 146.808 194.669 146.912 195.144 147.12C195.618 147.323 196.072 147.621 196.504 148.016L195.664 148.888C195.328 148.573 194.973 148.341 194.6 148.192C194.232 148.043 193.818 147.968 193.36 147.968C192.96 147.968 192.573 148.045 192.2 148.2C191.826 148.355 191.49 148.608 191.192 148.96C190.898 149.307 190.664 149.768 190.488 150.344C190.317 150.92 190.232 151.635 190.232 152.488C190.232 153.549 190.341 154.413 190.56 155.08C190.784 155.747 191.112 156.237 191.544 156.552C191.981 156.861 192.52 157.016 193.16 157.016C193.544 157.016 193.906 156.971 194.248 156.88C194.594 156.789 194.93 156.659 195.256 156.488V153.128H193.088L192.92 151.976H196.632V157.224C196.136 157.491 195.608 157.717 195.048 157.904C194.488 158.091 193.816 158.184 193.032 158.184ZM205.033 150.384C205.033 149.813 204.921 149.363 204.697 149.032C204.473 148.696 204.167 148.456 203.777 148.312C203.388 148.163 202.943 148.088 202.441 148.088H200.849V152.792H202.385C202.903 152.792 203.359 152.723 203.753 152.584C204.148 152.44 204.46 152.195 204.689 151.848C204.919 151.496 205.033 151.008 205.033 150.384ZM206.521 150.368C206.521 151.227 206.337 151.915 205.969 152.432C205.607 152.949 205.105 153.325 204.465 153.56C203.825 153.795 203.089 153.912 202.257 153.912H200.849V158H199.457V146.984H202.273C203.585 146.984 204.62 147.261 205.377 147.816C206.14 148.365 206.521 149.216 206.521 150.368ZM215.155 146.984V148.096H212.707V156.888H215.155V158H208.851V156.888H211.299V148.096H208.851V146.984H215.155ZM225.653 152.504C225.653 153.613 225.501 154.597 225.197 155.456C224.898 156.309 224.448 156.979 223.845 157.464C223.242 157.944 222.493 158.184 221.597 158.184C220.706 158.184 219.957 157.949 219.349 157.48C218.746 157.005 218.293 156.344 217.989 155.496C217.69 154.648 217.541 153.656 217.541 152.52C217.541 151.405 217.69 150.419 217.989 149.56C218.293 148.701 218.746 148.029 219.349 147.544C219.957 147.053 220.706 146.808 221.597 146.808C222.493 146.808 223.242 147.045 223.845 147.52C224.448 147.995 224.898 148.659 225.197 149.512C225.501 150.365 225.653 151.363 225.653 152.504ZM224.197 152.504C224.197 151.037 223.994 149.915 223.589 149.136C223.189 148.357 222.525 147.968 221.597 147.968C220.669 147.968 220.002 148.36 219.597 149.144C219.197 149.928 218.997 151.053 218.997 152.52C218.997 153.987 219.205 155.104 219.621 155.872C220.037 156.635 220.696 157.016 221.597 157.016C222.525 157.016 223.189 156.632 223.589 155.864C223.994 155.091 224.197 153.971 224.197 152.504ZM188.595 170.4C189.341 170.4 189.936 170.581 190.379 170.944C190.827 171.307 191.149 171.819 191.347 172.48C191.544 173.136 191.643 173.904 191.643 174.784C191.643 175.632 191.523 176.389 191.283 177.056C191.048 177.717 190.691 178.237 190.211 178.616C189.731 178.995 189.125 179.184 188.395 179.184C187.472 179.184 186.731 178.859 186.171 178.208V182.224L184.827 182.392V170.576H185.971L186.083 171.752C186.392 171.32 186.76 170.987 187.187 170.752C187.619 170.517 188.088 170.4 188.595 170.4ZM188.275 171.48C187.811 171.48 187.4 171.621 187.043 171.904C186.691 172.181 186.4 172.491 186.171 172.832V177.008C186.389 177.333 186.664 177.592 186.995 177.784C187.331 177.971 187.699 178.064 188.099 178.064C188.797 178.064 189.323 177.797 189.675 177.264C190.027 176.731 190.203 175.901 190.203 174.776C190.203 174.04 190.133 173.429 189.995 172.944C189.856 172.453 189.645 172.088 189.363 171.848C189.08 171.603 188.717 171.48 188.275 171.48ZM198.685 170.576V177.936H201.061V179H194.741V177.936H197.341V171.64H194.821V170.576H198.685ZM197.613 166.632C197.911 166.632 198.149 166.723 198.325 166.904C198.506 167.085 198.597 167.307 198.597 167.568C198.597 167.84 198.506 168.069 198.325 168.256C198.149 168.437 197.911 168.528 197.613 168.528C197.33 168.528 197.098 168.437 196.917 168.256C196.735 168.069 196.645 167.84 196.645 167.568C196.645 167.307 196.735 167.085 196.917 166.904C197.098 166.723 197.33 166.632 197.613 166.632ZM204.014 179V170.576H205.158L205.262 171.744C205.604 171.312 206.03 170.981 206.542 170.752C207.06 170.517 207.561 170.4 208.046 170.4C208.873 170.4 209.473 170.619 209.846 171.056C210.225 171.493 210.414 172.101 210.414 172.88V179H209.07V173.872C209.07 173.296 209.038 172.832 208.974 172.48C208.91 172.123 208.777 171.864 208.574 171.704C208.372 171.539 208.057 171.456 207.63 171.456C207.3 171.456 206.988 171.528 206.694 171.672C206.406 171.816 206.148 171.997 205.918 172.216C205.694 172.429 205.508 172.645 205.358 172.864V179H204.014ZM227.57 167.984V178.68H226.226V169.44L223.698 170.976L223.114 170.016L226.394 167.984H227.57ZM229.874 177.904V179H223.514V177.904H229.874ZM235.5 167.808C236.193 167.808 236.785 167.941 237.276 168.208C237.772 168.475 238.153 168.84 238.42 169.304C238.686 169.768 238.82 170.293 238.82 170.88C238.82 171.387 238.732 171.883 238.556 172.368C238.38 172.848 238.097 173.355 237.708 173.888C237.324 174.416 236.817 175.003 236.188 175.648C235.564 176.293 234.796 177.029 233.884 177.856H239.076L238.908 179H232.356V177.904C233.188 177.109 233.894 176.413 234.476 175.816C235.062 175.219 235.545 174.696 235.924 174.248C236.308 173.795 236.606 173.384 236.82 173.016C237.038 172.648 237.19 172.299 237.276 171.968C237.361 171.632 237.404 171.285 237.404 170.928C237.404 170.309 237.228 169.821 236.876 169.464C236.529 169.107 236.049 168.928 235.436 168.928C234.892 168.928 234.446 169.021 234.1 169.208C233.753 169.395 233.406 169.693 233.06 170.104L232.132 169.384C232.569 168.851 233.054 168.456 233.588 168.2C234.121 167.939 234.758 167.808 235.5 167.808Z" fill="#E5E7EB"/>
<path d="M253.586 357.414C254.367 358.195 255.633 358.195 256.414 357.414L269.142 344.686C269.923 343.905 269.923 342.639 269.142 341.858C268.361 341.077 267.095 341.077 266.314 341.858L255 353.172L243.686 341.858C242.905 341.077 241.639 341.077 240.858 341.858C240.077 342.639 240.077 343.905 240.858 344.686L253.586 357.414ZM255 272L253 272L253 356L255 356L257 356L257 272L255 272Z" fill="#E5E7EB"/>
<path d="M364.414 270.586C363.633 269.805 362.367 269.805 361.586 270.586L348.858 283.314C348.077 284.095 348.077 285.361 348.858 286.142C349.639 286.923 350.905 286.923 351.686 286.142L363 274.828L374.314 286.142C375.095 286.923 376.361 286.923 377.142 286.142C377.923 285.361 377.923 284.095 377.142 283.314L364.414 270.586ZM363 356L365 356L365 272L363 272L361 272L361 356L363 356Z" fill="#E5E7EB"/>
<path d="M366.414 119.586C365.633 118.805 364.367 118.805 363.586 119.586L350.858 132.314C350.077 133.095 350.077 134.361 350.858 135.142C351.639 135.923 352.905 135.923 353.686 135.142L365 123.828L376.314 135.142C377.095 135.923 378.361 135.923 379.142 135.142C379.923 134.361 379.923 133.095 379.142 132.314L366.414 119.586ZM365 205L367 205L367 121L365 121L363 121L363 205L365 205Z" fill="#E5E7EB"/>
<path d="M307.586 814.414C308.367 815.195 309.633 815.195 310.414 814.414L323.142 801.686C323.923 800.905 323.923 799.639 323.142 798.858C322.361 798.077 321.095 798.077 320.314 798.858L309 810.172L297.686 798.858C296.905 798.077 295.639 798.077 294.858 798.858C294.077 799.639 294.077 800.905 294.858 801.686L307.586 814.414ZM310.414 727.586C309.633 726.805 308.367 726.805 307.586 727.586L294.858 740.314C294.077 741.095 294.077 742.361 294.858 743.142C295.639 743.923 296.905 743.923 297.686 743.142L309 731.828L320.314 743.142C321.095 743.923 322.361 743.923 323.142 743.142C323.923 742.361 323.923 741.095 323.142 740.314L310.414 727.586ZM309 813L311 813L311 729L309 729L307 729L307 813L309 813Z" fill="#E5E7EB"/>
<path d="M307.586 662.414C308.367 663.195 309.633 663.195 310.414 662.414L323.142 649.686C323.923 648.905 323.923 647.639 323.142 646.858C322.361 646.077 321.095 646.077 320.314 646.858L309 658.172L297.686 646.858C296.905 646.077 295.639 646.077 294.858 646.858C294.077 647.639 294.077 648.905 294.858 649.686L307.586 662.414ZM310.414 575.586C309.633 574.805 308.367 574.805 307.586 575.586L294.858 588.314C294.077 589.095 294.077 590.361 294.858 591.142C295.639 591.923 296.905 591.923 297.686 591.142L309 579.828L320.314 591.142C321.095 591.923 322.361 591.923 323.142 591.142C323.923 590.361 323.923 589.095 323.142 588.314L310.414 575.586ZM309 661L311 661L311 577L309 577L307 577L307 661L309 661Z" fill="#E5E7EB"/>
<path d="M253.586 206.414C254.367 207.195 255.633 207.195 256.414 206.414L269.142 193.686C269.923 192.905 269.923 191.639 269.142 190.858C268.361 190.077 267.095 190.077 266.314 190.858L255 202.172L243.686 190.858C242.905 190.077 241.639 190.077 240.858 190.858C240.077 191.639 240.077 192.905 240.858 193.686L253.586 206.414ZM255 205L257 205L257 121L255 121L253 121L253 205L255 205Z" fill="#E5E7EB"/>
</svg>
